<svg width="44" height="44" viewBox="0 0 44 44" fill="none" xmlns="http://www.w3.org/2000/svg">
<circle cx="22" cy="22" r="22" fill="#FCD800"/>
<path fill-rule="evenodd" clip-rule="evenodd" d="M20.1027 10.1653C18.2171 10.6208 16.4964 12.3312 15.9962 14.2474C15.7986 15.0047 15.7897 16.4733 15.9786 17.1771C16.1871 17.9538 16.6996 18.8983 17.2355 19.4931L17.7097 20.0193L17.1344 20.3627C14.6007 21.8749 13.0064 24.678 13.0014 27.6296L13 28.4417H14.1552H15.3104V27.5923C15.3104 25.9185 15.9214 24.4748 17.1465 23.2542C17.5635 22.8387 18.1652 22.3715 18.5329 22.1775C19.3434 21.7501 20.6056 21.4215 21.4444 21.4194C23.985 21.4133 26.3904 19.5926 27.0313 17.1909C27.2281 16.4532 27.2169 14.8869 27.0097 14.1835C26.7194 13.1982 26.1555 12.2601 25.4432 11.5776C24.038 10.2312 22.0295 9.70006 20.1027 10.1653ZM22.8962 12.5913C23.6017 12.9009 24.3614 13.6569 24.6727 14.3591C25.0073 15.1139 25.0361 15.8283 24.7675 16.711C24.2028 18.5658 22.1391 19.5841 20.3205 18.9052C18.4999 18.2256 17.5702 16.0956 18.3381 14.3634C18.6208 13.7257 19.3396 12.9704 19.9642 12.6544C20.9689 12.1464 21.8399 12.1277 22.8962 12.5913ZM26.8628 21.6824C26.6767 21.8799 25.5734 22.6851 25.4217 22.734C25.4092 22.738 25.6718 23.0274 26.0052 23.377C26.3387 23.7267 26.782 24.3373 26.9905 24.734C27.5821 25.8602 27.7024 26.4913 27.7024 28.4715C27.7024 30.017 27.6812 30.2261 27.5017 30.4473L27.3009 30.6947L20.2002 30.7471L13.0993 30.7995L13.3718 31.3449C13.6862 31.9743 14.2035 32.4647 14.8849 32.7793C15.3536 32.9957 15.4814 33 21.5064 33H27.6499L28.2466 32.7076C28.8937 32.3906 29.3523 31.9353 29.7228 31.2419C29.938 30.8394 29.9625 30.63 29.9948 28.9195C30.048 26.1024 29.7016 24.6108 28.6144 22.9765C28.1096 22.2177 27.4053 21.421 27.2391 21.421C27.1675 21.421 26.9981 21.5386 26.8628 21.6824Z" fill="#2C2C2C"/>
</svg>
