<svg width="30" height="30" viewBox="0 0 30 30" fill="none" xmlns="http://www.w3.org/2000/svg">
<path fill-rule="evenodd" clip-rule="evenodd" d="M13.5704 0.030555C13.4535 0.0504655 13.0709 0.107389 12.7203 0.156995C8.67366 0.729463 4.85368 3.17462 2.51698 6.6883C-0.434267 11.1259 -0.816476 16.7685 1.50943 21.5618C3.61567 25.9027 7.64307 28.9315 12.4777 29.8107C13.4859 29.9941 15.5587 30.0585 16.6441 29.9401C18.3175 29.7578 20.2531 29.1881 21.7316 28.4429C23.0478 27.7795 24.4518 26.819 24.4518 26.582C24.4518 26.4003 22.6322 24.6566 22.4427 24.6566C22.3444 24.6566 21.9448 24.8692 21.5546 25.1291C20.2665 25.9871 18.956 26.5271 17.3109 26.878C16.0627 27.1442 14.1727 27.1466 12.841 26.8836C11.1398 26.5477 9.57648 25.9117 8.17218 24.9841C7.12663 24.2936 5.56821 22.6859 4.86287 21.5703C3.2667 19.0457 2.64501 16.1254 3.07984 13.1956C3.2763 11.8718 3.55744 10.9765 4.16994 9.72371C5.38705 7.23431 7.18427 5.43905 9.75433 4.14572C10.544 3.74836 11.9768 3.26209 12.7509 3.12867C13.038 3.07924 13.378 3.0178 13.5066 2.99228L13.7404 2.94573V4.43987V5.93409L13.5066 5.98182C11.4245 6.40709 9.59187 7.39495 8.33506 8.76954C4.67244 12.7751 5.21447 19.0393 9.50345 22.274C13.4537 25.2534 19.041 24.5613 22.1184 20.7115C23.4167 19.0873 24.1118 17.0956 24.1118 14.9991C24.1118 11.8578 22.5857 9.05654 19.9286 7.32042C18.9547 6.68405 17.9595 6.29571 16.482 5.97553C16.2928 5.93451 16.2907 5.9186 16.2907 4.48922C16.2907 2.82951 16.1958 2.96811 17.2192 3.13429C18.6687 3.36964 20.6687 4.22366 22.0097 5.17979C22.7615 5.71575 24.0325 6.93319 24.5793 7.64111C26.1545 9.68066 27.0912 12.4617 27.0855 15.082C27.0806 17.302 26.3078 19.9049 25.248 21.2708C25.0408 21.5379 24.814 21.8935 24.744 22.061C24.6296 22.3353 24.6309 22.395 24.7571 22.6613C24.9143 22.9928 26.4007 24.4013 26.5934 24.4013C26.7711 24.4013 26.9996 24.1286 27.5915 23.2101C29.4019 20.4011 30.1875 17.3417 29.9624 13.9781C29.5011 7.08464 24.4233 1.4385 17.5659 0.194093C16.8012 0.0553152 14.0781 -0.056149 13.5704 0.030555ZM13.7404 10.2751V12.0601L13.4216 12.2238C12.3081 12.795 11.6153 14.2832 11.8652 15.5667C12.3766 18.1922 15.5818 19.0968 17.3832 17.124C18.7278 15.6515 18.3717 13.2681 16.657 12.2622L16.2907 12.0474V10.2764V8.50535L16.6946 8.61349C18.6174 9.1287 20.1398 10.4093 20.9819 12.2199C21.4351 13.1944 21.5589 13.7908 21.5589 14.9991C21.5589 16.2075 21.4351 16.8038 20.9819 17.7783C19.8809 20.1458 17.6044 21.5968 14.9988 21.592C12.4048 21.5871 10.1537 20.1585 9.06539 17.8265C8.56901 16.7629 8.44022 16.1804 8.44022 14.9991C8.44022 13.782 8.57378 13.2031 9.10765 12.1062C10.0244 10.2227 11.4753 9.08675 13.7192 8.49556C13.7309 8.4925 13.7404 9.29325 13.7404 10.2751Z" fill="#00A6CA"/>
</svg>
