<svg width="29" height="27" viewBox="0 0 29 27" fill="none" xmlns="http://www.w3.org/2000/svg">
<path fill-rule="evenodd" clip-rule="evenodd" d="M14.3091 0.00518888C13.0503 0.135659 12.0853 0.643027 11.4073 1.53077C10.8997 2.19565 0.502759 20.5081 0.261445 21.1624C-0.321618 22.7436 0.0920041 24.6079 1.2883 25.7909C1.84895 26.3454 2.41524 26.6686 3.16126 26.8598C3.89852 27.0489 25.1535 27.0457 25.8916 26.8564C26.5943 26.6763 27.1658 26.3498 27.7039 25.8213C29.0952 24.455 29.3971 22.3328 28.4602 20.5058C28.0367 19.6799 18.005 2.07364 17.7606 1.72719C17.2773 1.04224 16.3671 0.35911 15.7007 0.181279C15.2621 0.064245 14.5766 -0.0225143 14.3091 0.00518888ZM15.1806 2.95907C15.575 3.26007 26.1968 21.973 26.2533 22.4663C26.313 22.9876 26.0774 23.5963 25.6787 23.9509L25.3464 24.2464H14.532H3.71762L3.43745 24.0598C2.98684 23.7595 2.75547 23.2323 2.79137 22.5876L2.82145 22.0484L8.15429 12.6758C11.0874 7.52081 13.5678 3.21437 13.6664 3.10596C14.0835 2.6472 14.6944 2.58798 15.1806 2.95907ZM13.2138 13.2149V17.6109H14.4777H15.7415V13.2149V8.81888H14.4777H13.2138V13.2149ZM13.2138 20.0992V21.3434H14.4777H15.7415V20.0992V18.8551H14.4777H13.2138V20.0992Z" fill="#00A6CA"/>
</svg>
