<svg width="28" height="38" viewBox="0 0 28 38" fill="none" xmlns="http://www.w3.org/2000/svg">
<path fill-rule="evenodd" clip-rule="evenodd" d="M4.62229 0.126309C2.87436 0.440971 1.48582 1.40647 0.631185 2.90169C0.304719 3.47281 0 4.50666 0 5.04331V5.43879L0.408523 5.49307C0.633122 5.52294 1.08074 5.54735 1.40306 5.54735H1.98926L2.08461 5.01395C2.36837 3.42647 3.68797 2.22047 5.30463 2.07129L5.81088 2.02453V1.01226V0L5.52474 0.00768095C5.36741 0.0119481 4.96126 0.065288 4.62229 0.126309ZM5.67882 4.26838C4.98494 4.48413 4.31898 5.04791 3.98935 5.69875L3.74186 6.18742V19.1597V32.1319L3.98838 32.6186C4.33782 33.3084 4.97253 33.8371 5.71263 34.055C6.28377 34.2232 6.48741 34.2269 13.8245 34.2038L21.3506 34.1802L21.8389 33.9582C22.7811 33.5298 23.3147 32.8628 23.5 31.8815C23.6433 31.1232 23.6337 10.739 23.4901 10.5997C23.3571 10.4708 21.5445 10.4592 21.3008 10.5856C21.1346 10.6718 21.1305 10.8372 21.1305 17.3704V24.0669H13.6468H6.16306V15.4106C6.16306 7.65508 6.1775 6.74037 6.30137 6.6202C6.42525 6.50021 7.31203 6.48604 14.7316 6.48493C19.2921 6.48433 23.1125 6.46061 23.2215 6.43236C23.4918 6.36212 23.4746 6.11241 23.1631 5.58601C22.8521 5.06046 22.302 4.56564 21.7575 4.32155C21.3529 4.1402 21.3082 4.13909 13.7788 4.12168C6.52078 4.10495 6.18516 4.11101 5.67882 4.26838ZM21.112 28.8433C21.0888 31.3288 21.0725 31.5849 20.9292 31.7236C20.7809 31.8673 20.3655 31.8759 13.5925 31.8759C6.58716 31.8759 6.40993 31.8719 6.28799 31.7102C6.1863 31.5754 6.16306 31.0397 6.16306 28.8299V26.1152H13.6503H21.1375L21.112 28.8433ZM7.88493 28.0118C7.67001 28.3091 7.6922 29.6995 7.9161 29.9675L8.08443 30.169L13.5289 30.1901C17.8023 30.2067 19.0208 30.1879 19.1935 30.1025C19.4059 29.9975 19.4145 29.9601 19.4385 29.0447C19.4588 28.2655 19.438 28.0713 19.3221 27.9589C19.1955 27.8362 18.6033 27.8221 13.6014 27.8221H8.02192L7.88493 28.0118ZM25.883 32.6959C25.8805 33.0821 25.5117 34.0771 25.2197 34.4856C24.7061 35.204 23.3582 35.9233 22.5172 35.9279L22.187 35.9297V36.9649V38L22.7373 37.9409C23.588 37.8495 24.0207 37.73 24.7843 37.3755C26.621 36.5228 27.6343 35.0828 27.9483 32.8787L28 32.516H27.4836C27.1996 32.516 26.7236 32.4913 26.426 32.4612L25.8848 32.4063L25.883 32.6959Z" fill="#00A6CA"/>
</svg>
