<svg width="36" height="36" viewBox="0 0 36 36" fill="none" xmlns="http://www.w3.org/2000/svg">
<circle cx="18" cy="18" r="18" fill="#FCD800"/>
<path fill-rule="evenodd" clip-rule="evenodd" d="M16.1059 7.27738C14.0997 7.89686 12.4629 9.62603 11.8743 11.7475C11.7443 12.216 11.7095 12.8373 11.6766 15.2775L11.6368 18.2389H12.6444H13.652L13.6542 15.5618C13.6555 14.0895 13.6978 12.6975 13.7484 12.4689C14.1184 10.7958 15.556 9.4149 17.241 9.11402C19.1588 8.77145 21.1399 10.0398 21.8572 12.0692C22.0279 12.5522 22.0502 12.8889 22.102 15.775C22.1562 18.7888 22.1696 18.9761 22.3658 19.4709C22.4795 19.7575 22.6106 20.0326 22.657 20.0821C22.9702 20.4162 22.9232 20.4185 15.6062 20.4185H8.47107V21.4123V22.406L11.4933 22.431L14.5155 22.4559L14.5708 23.9248C14.6013 24.7327 14.674 25.5504 14.7324 25.742C14.9002 26.2932 15.5125 27.1733 15.9625 27.5102C16.7526 28.1018 17.1484 28.2327 18.1531 28.2348C18.9957 28.2365 19.1082 28.214 19.6529 27.934C20.6614 27.4158 21.3291 26.5788 21.6005 25.4922C21.8385 24.5393 21.8844 24.5882 20.7518 24.5882H19.7621L19.7021 24.9218C19.6342 25.2991 19.2048 25.8565 18.8239 26.0618C18.1595 26.4201 17.1777 26.0959 16.7789 25.3864C16.5772 25.0276 16.5606 24.8992 16.5606 23.7032V22.4086H21.7746H26.9885L27.226 22.161C27.538 21.8357 27.6174 21.3804 27.4286 20.9995C27.2338 20.6068 26.974 20.4521 26.3999 20.3869C25.4419 20.2781 24.6399 19.6913 24.2529 18.8159C24.0735 18.4102 24.0571 18.1722 24.0076 15.2538C23.9501 11.8644 23.928 11.7 23.3773 10.5623C22.5798 8.91492 21.0164 7.60736 19.3559 7.1992C18.478 6.98342 16.938 7.02048 16.1059 7.27738Z" fill="#2C2C2C"/>
</svg>
