<svg width="184" height="92" viewBox="0 0 184 92" fill="none" xmlns="http://www.w3.org/2000/svg">
<path d="M114.005 91.8479C114.005 86.0016 111.682 80.3948 107.549 76.2608C103.415 72.1269 97.8077 69.8044 91.9614 69.8044C86.1151 69.8044 80.5083 72.1269 76.3744 76.2608C72.2404 80.3948 69.918 86.0016 69.918 91.8479L91.9614 91.8479H114.005Z" fill="#EDEDED"/>
<path d="M7.07613 91.8478C3.01804 91.8478 -0.302282 88.5523 0.0218886 84.5072C1.7587 62.8346 11.1437 42.3878 26.6299 26.9016C43.8547 9.6768 67.2165 1.83909e-06 91.5761 0C115.936 -1.83909e-06 139.297 9.67679 156.522 26.9016C172.008 42.3878 181.393 62.8346 183.13 84.5072C183.454 88.5523 180.134 91.8478 176.076 91.8478C172.018 91.8478 168.765 88.5503 168.379 84.5106C166.682 66.7412 158.86 50.0221 146.131 37.293C131.662 22.8241 112.038 14.6956 91.5761 14.6956C71.1141 14.6956 51.4901 22.8242 37.0213 37.293C24.2922 50.0221 16.4703 66.7412 14.7734 84.5106C14.3876 88.5504 11.1342 91.8478 7.07613 91.8478Z" fill="#EDEDED"/>
</svg>
