<svg width="281" height="250" viewBox="0 0 281 250" fill="none" xmlns="http://www.w3.org/2000/svg">
<path opacity="0.5" d="M1.23506 147.49C1.34506 150.46 3.56706 152.286 6.44906 152.286C9.92506 152.286 11.8611 149.756 11.8611 147.028C11.8611 144.894 10.7391 142.87 8.27506 142.452L11.6191 137.084V136.622H1.82906V139.24H7.26306L4.42506 144.124V144.586C6.40506 144.234 8.69306 144.586 8.75906 147.05C8.73706 148.458 7.83506 149.448 6.40506 149.448C5.08506 149.448 4.20506 148.788 4.11706 147.49H1.23506ZM20.2018 136.336C17.0118 136.336 14.4378 138.316 14.4378 141.638V147.006C14.4378 150.35 17.0118 152.308 20.2018 152.308C23.3478 152.308 25.9218 150.35 25.9218 147.006V141.638C25.9218 138.316 23.3478 136.336 20.2018 136.336ZM20.2018 149.426C18.7938 149.426 17.7598 148.7 17.6058 147.358C17.5618 146.984 17.5398 146.588 17.5398 146.126V142.54C17.5398 142.1 17.5618 141.682 17.6058 141.286C17.7598 139.9 18.7938 139.218 20.2018 139.218C21.5438 139.218 22.6218 139.9 22.7758 141.286C22.8198 141.682 22.8418 142.1 22.8418 142.54V146.126C22.8418 146.588 22.8198 146.984 22.7758 147.358C22.6218 148.7 21.5438 149.426 20.2018 149.426ZM34.5534 136.336C31.3634 136.336 28.7894 138.316 28.7894 141.638V147.006C28.7894 150.35 31.3634 152.308 34.5534 152.308C37.6994 152.308 40.2734 150.35 40.2734 147.006V141.638C40.2734 138.316 37.6994 136.336 34.5534 136.336ZM34.5534 149.426C33.1454 149.426 32.1114 148.7 31.9574 147.358C31.9134 146.984 31.8914 146.588 31.8914 146.126V142.54C31.8914 142.1 31.9134 141.682 31.9574 141.286C32.1114 139.9 33.1454 139.218 34.5534 139.218C35.8954 139.218 36.9734 139.9 37.1274 141.286C37.1714 141.682 37.1934 142.1 37.1934 142.54V146.126C37.1934 146.588 37.1714 146.984 37.1274 147.358C36.9734 148.7 35.8954 149.426 34.5534 149.426Z" fill="black"/>
<path opacity="0.5" d="M245.342 152L249.786 144.806C250.468 143.728 250.82 142.738 250.842 141.418C250.842 137.898 248.29 136.226 245.034 136.226C241.756 136.226 239.204 137.898 239.204 141.418C239.204 144.652 241.404 146.5 244.572 146.39C244.858 146.39 245.188 146.302 245.43 146.192L241.756 152H245.342ZM245.034 139.02C246.618 139.02 247.586 139.856 247.586 141.418C247.586 143.002 246.618 143.882 245.034 143.882C243.45 143.882 242.46 143.002 242.46 141.418C242.46 139.856 243.45 139.02 245.034 139.02ZM259.013 136.336C255.823 136.336 253.249 138.316 253.249 141.638V147.006C253.249 150.35 255.823 152.308 259.013 152.308C262.159 152.308 264.733 150.35 264.733 147.006V141.638C264.733 138.316 262.159 136.336 259.013 136.336ZM259.013 149.426C257.605 149.426 256.571 148.7 256.417 147.358C256.373 146.984 256.351 146.588 256.351 146.126V142.54C256.351 142.1 256.373 141.682 256.417 141.286C256.571 139.9 257.605 139.218 259.013 139.218C260.355 139.218 261.433 139.9 261.587 141.286C261.631 141.682 261.653 142.1 261.653 142.54V146.126C261.653 146.588 261.631 146.984 261.587 147.358C261.433 148.7 260.355 149.426 259.013 149.426ZM273.365 136.336C270.175 136.336 267.601 138.316 267.601 141.638V147.006C267.601 150.35 270.175 152.308 273.365 152.308C276.511 152.308 279.085 150.35 279.085 147.006V141.638C279.085 138.316 276.511 136.336 273.365 136.336ZM273.365 149.426C271.957 149.426 270.923 148.7 270.769 147.358C270.725 146.984 270.703 146.588 270.703 146.126V142.54C270.703 142.1 270.725 141.682 270.769 141.286C270.923 139.9 271.957 139.218 273.365 139.218C274.707 139.218 275.785 139.9 275.939 141.286C275.983 141.682 276.005 142.1 276.005 142.54V146.126C276.005 146.588 275.983 146.984 275.939 147.358C275.785 148.7 274.707 149.426 273.365 149.426Z" fill="black"/>
<path d="M126.452 168H106.612V173.2H118.412L108.492 196H114.532L126.452 168.84V168ZM139.377 167.52C133.577 167.52 128.897 171.12 128.897 177.16V186.92C128.897 193 133.577 196.56 139.377 196.56C145.097 196.56 149.777 193 149.777 186.92V177.16C149.777 171.12 145.097 167.52 139.377 167.52ZM139.377 191.32C136.817 191.32 134.937 190 134.657 187.56C134.577 186.88 134.537 186.16 134.537 185.32V178.8C134.537 178 134.577 177.24 134.657 176.52C134.937 174 136.817 172.76 139.377 172.76C141.817 172.76 143.777 174 144.057 176.52C144.137 177.24 144.177 178 144.177 178.8V185.32C144.177 186.16 144.137 186.88 144.057 187.56C143.777 190 141.817 191.32 139.377 191.32ZM165.751 176.16C165.631 177.8 164.631 179.4 163.631 180.8L153.711 194.72V196H171.671V190.8H162.551C166.111 186.2 167.351 184.12 168.191 182.96C173.751 175.56 170.751 167.56 162.831 167.56C157.351 167.56 154.071 170.76 154.071 176.24H159.191C159.191 173.48 161.071 172.68 162.671 172.68C164.311 172.68 165.871 173.84 165.751 176.16Z" fill="black"/>
<path d="M170 125C170 117.044 166.839 109.413 161.213 103.787C155.587 98.1607 147.956 95 140 95C132.044 95 124.413 98.1607 118.787 103.787C113.161 109.413 110 117.044 110 125L140 125H170Z" fill="#EDEDED"/>
<path d="M166.74 46.7448L136.691 111.897C135.391 114.717 136.705 118.052 139.579 119.227C142.453 120.402 145.727 118.942 146.774 116.019L170.975 48.4762C171.388 47.3226 170.82 46.0479 169.686 45.5842C168.551 45.1204 167.253 45.6319 166.74 46.7448Z" fill="#2C2C2C"/>
<path d="M25 125C19.4772 125 14.9584 120.515 15.3995 115.01C17.7633 85.5146 30.5358 57.6875 51.6116 36.6117C75.0537 13.1696 106.848 2.50291e-06 140 0C173.152 -2.50291e-06 204.946 13.1696 228.388 36.6116C249.464 57.6875 262.237 85.5146 264.6 115.01C265.042 120.515 260.523 125 255 125V125C249.477 125 245.049 120.512 244.524 115.015C242.215 90.8312 231.57 68.0774 214.246 50.7538C194.555 31.0625 167.848 20 140 20C112.152 20 85.4451 31.0625 65.7538 50.7538C48.4301 68.0774 37.785 90.8312 35.4756 115.015C34.9505 120.512 30.5228 125 25 125V125Z" fill="#EDEDED"/>
<path d="M25 125C19.4772 125 14.9584 120.516 15.3998 115.01C16.768 97.9437 21.6315 81.3024 29.7277 66.1356C39.3972 48.0215 53.38 32.5685 70.4403 21.1421C87.5007 9.71583 107.113 2.66819 127.544 0.622131C144.651 -1.09103 161.891 0.746436 178.194 5.97793C183.452 7.66544 185.879 13.551 183.777 18.6581V18.6581C181.674 23.7651 175.839 26.1514 170.556 24.5442C157.314 20.5166 143.374 19.1369 129.537 20.5226C112.375 22.2413 95.9006 28.1613 81.5699 37.7594C67.2392 47.3575 55.4936 60.3381 47.3713 75.5539C40.8227 87.8215 36.792 101.237 35.4758 115.015C34.9506 120.513 30.5228 125 25 125V125Z" fill="#A9D161"/>
</svg>
