<svg width="30" height="25" viewBox="0 0 30 25" fill="none" xmlns="http://www.w3.org/2000/svg">
<path fill-rule="evenodd" clip-rule="evenodd" d="M2.14016 0.802357C1.49921 1.10869 0.922712 1.67645 0.588333 2.33045C0.337491 2.82119 0.336676 2.84937 0.302936 12.4185C0.279201 19.1341 0.307473 22.1621 0.397292 22.5065C0.595313 23.2662 1.20823 24.0603 1.91666 24.4749L2.54737 24.844H14.2402H25.9329L26.5658 24.4749C27.2137 24.0971 27.7915 23.3862 28.0474 22.6522C28.1465 22.368 28.1865 20.0235 28.1929 14.1101L28.2017 5.95968H26.9825H25.7634L25.7318 13.8759C25.706 20.368 25.6715 21.8288 25.5406 21.9956C25.3941 22.1821 24.4599 22.1989 14.2402 22.1989C4.01903 22.1989 3.08628 22.1821 2.93969 21.9955C2.80752 21.8272 2.78006 20.2249 2.78006 12.6963V3.60043L3.05475 3.36533C3.3213 3.137 3.69349 3.13011 15.7074 3.13011C29.4639 3.13011 28.3087 3.20946 27.8629 2.29477C27.5644 1.6826 26.9769 1.10672 26.3402 0.802357C25.8249 0.555939 25.6331 0.552002 14.2402 0.552002C2.84719 0.552002 2.65545 0.555939 2.14016 0.802357ZM10.0776 5.96066C9.40132 6.11063 8.47928 6.65895 8.06555 7.15707C7.87788 7.38319 7.58225 7.85672 7.40866 8.20943C7.1335 8.76821 7.0929 8.99322 7.0929 9.95798C7.0929 10.9213 7.13373 11.1481 7.40703 11.7032L7.72117 12.3411L7.05346 13.0565C6.28836 13.8762 5.8317 14.707 5.57621 15.7444C5.15027 17.4736 5.49686 18.6718 6.59424 19.2641C7.00797 19.4872 7.27428 19.4994 11.0241 19.4662L15.0139 19.4309L15.4353 19.1254C15.667 18.9575 15.9701 18.6064 16.1089 18.3453C16.3298 17.9296 16.3553 17.7283 16.3139 16.7272C16.2719 15.7126 16.2185 15.4809 15.8397 14.6703C15.5503 14.0514 15.1944 13.5366 14.7359 13.0742L14.059 12.3915L14.382 11.6669C14.6507 11.0636 14.7048 10.7773 14.7051 9.95798C14.7053 9.13101 14.6524 8.85543 14.3738 8.23292C13.615 6.53691 11.8026 5.5783 10.0776 5.96066ZM11.7695 8.96431C12.1521 9.3351 12.2041 9.45395 12.2041 9.95798C12.2041 10.462 12.1521 10.5809 11.7695 10.9516C11.2842 11.422 10.8413 11.4927 10.2857 11.189C9.81575 10.932 9.58631 10.5367 9.58631 9.98406C9.58631 9.38185 9.74047 9.08229 10.2046 8.78309C10.7756 8.41488 11.2605 8.4711 11.7695 8.96431ZM19.0103 12.7875V14.0793H21.0464H23.0825V12.7875V11.4958H21.0464H19.0103V12.7875ZM11.8193 14.224C12.6752 14.4951 13.6747 15.669 13.7918 16.5405L13.8329 16.8474L10.8952 16.8802C7.55235 16.9176 7.73536 16.9879 8.23286 15.8581C8.85182 14.4526 10.3649 13.7631 11.8193 14.224ZM19.0103 18.2006V19.4924H21.0464H23.0825V18.2006V16.9089H21.0464H19.0103V18.2006Z" fill="#00A6CA"/>
</svg>
