<svg width="30" height="25" viewBox="0 0 30 25" fill="none" xmlns="http://www.w3.org/2000/svg">
<path fill-rule="evenodd" clip-rule="evenodd" d="M2.14028 0.802357C1.49933 1.10869 0.922834 1.67645 0.588455 2.33045C0.337613 2.82119 0.336798 2.84937 0.303058 12.4185C0.279323 19.1341 0.307595 22.1621 0.397414 22.5065C0.595436 23.2662 1.20835 24.0603 1.91678 24.4749L2.54749 24.844H14.2403H25.9331L26.5659 24.4749C27.2138 24.0971 27.7916 23.3862 28.0475 22.6522C28.1467 22.368 28.1866 20.0235 28.193 14.1101L28.2018 5.95968H26.9826H25.7635L25.7319 13.8759C25.7061 20.368 25.6716 21.8288 25.5407 21.9956C25.3943 22.1821 24.46 22.1989 14.2403 22.1989C4.01915 22.1989 3.08641 22.1821 2.93981 21.9955C2.80764 21.8272 2.78018 20.2249 2.78018 12.6963V3.60043L3.05488 3.36533C3.32143 3.137 3.69362 3.13011 15.7075 3.13011C29.4641 3.13011 28.3089 3.20946 27.863 2.29477C27.5645 1.6826 26.977 1.10672 26.3403 0.802357C25.825 0.555939 25.6332 0.552002 14.2403 0.552002C2.84732 0.552002 2.65558 0.555939 2.14028 0.802357ZM10.0778 5.96066C9.40144 6.11063 8.4794 6.65895 8.06567 7.15707C7.87801 7.38319 7.58237 7.85672 7.40878 8.20943C7.13362 8.76821 7.09302 8.99322 7.09302 9.95798C7.09302 10.9213 7.13386 11.1481 7.40715 11.7032L7.72129 12.3411L7.05358 13.0565C6.28849 13.8762 5.83183 14.707 5.57633 15.7444C5.15039 17.4736 5.49698 18.6718 6.59436 19.2641C7.00809 19.4872 7.2744 19.4994 11.0242 19.4662L15.014 19.4309L15.4354 19.1254C15.6671 18.9575 15.9702 18.6064 16.109 18.3453C16.33 17.9296 16.3555 17.7283 16.314 16.7272C16.272 15.7126 16.2186 15.4809 15.8398 14.6703C15.5505 14.0514 15.1945 13.5366 14.736 13.0742L14.0591 12.3915L14.3821 11.6669C14.6509 11.0636 14.705 10.7773 14.7052 9.95798C14.7054 9.13101 14.6525 8.85543 14.374 8.23292C13.6152 6.53691 11.8027 5.5783 10.0778 5.96066ZM11.7697 8.96431C12.1522 9.3351 12.2042 9.45395 12.2042 9.95798C12.2042 10.462 12.1522 10.5809 11.7697 10.9516C11.2843 11.422 10.8415 11.4927 10.2858 11.189C9.81587 10.932 9.58643 10.5367 9.58643 9.98406C9.58643 9.38185 9.74059 9.08229 10.2047 8.78309C10.7757 8.41488 11.2607 8.4711 11.7697 8.96431ZM19.0105 12.7875V14.0793H21.0465H23.0826V12.7875V11.4958H21.0465H19.0105V12.7875ZM11.8195 14.224C12.6753 14.4951 13.6748 15.669 13.7919 16.5405L13.8331 16.8474L10.8953 16.8802C7.55247 16.9176 7.73548 16.9879 8.23298 15.8581C8.85194 14.4526 10.365 13.7631 11.8195 14.224ZM19.0105 18.2006V19.4924H21.0465H23.0826V18.2006V16.9089H21.0465H19.0105V18.2006Z" fill="#707070"/>
</svg>
