<svg width="20" height="20" viewBox="0 0 20 20" fill="none" xmlns="http://www.w3.org/2000/svg">
<path fill-rule="evenodd" clip-rule="evenodd" d="M10 2.28571C5.73952 2.28571 2.28571 5.73952 2.28571 10C2.28571 14.2605 5.73952 17.7143 10 17.7143C14.2605 17.7143 17.7143 14.2605 17.7143 10C17.7143 5.73952 14.2605 2.28571 10 2.28571ZM1 10C1 5.02944 5.02944 1 10 1C14.9706 1 19 5.02944 19 10C19 14.9706 14.9706 19 10 19C5.02944 19 1 14.9706 1 10Z" fill="#0BA11B"/>
<path fill-rule="evenodd" clip-rule="evenodd" d="M14.9501 6.32683C15.2032 6.57582 15.2066 6.98284 14.9576 7.23594L8.17498 14.1303L5.04103 10.9447C4.79204 10.6916 4.79537 10.2846 5.04846 10.0356C5.30156 9.78663 5.70858 9.78996 5.95757 10.0431L8.17498 12.297L14.041 6.33426C14.29 6.08117 14.697 6.07784 14.9501 6.32683Z" fill="#0BA11B" stroke="#0BA11B" stroke-width="0.5" stroke-linecap="round"/>
</svg>
