<svg width="18" height="18" viewBox="0 0 18 18" fill="none" xmlns="http://www.w3.org/2000/svg">
<path fill-rule="evenodd" clip-rule="evenodd" d="M9 1.28571C4.73952 1.28571 1.28571 4.73952 1.28571 9C1.28571 13.2605 4.73952 16.7143 9 16.7143C13.2605 16.7143 16.7143 13.2605 16.7143 9C16.7143 4.73952 13.2605 1.28571 9 1.28571ZM0 9C0 4.02944 4.02944 0 9 0C13.9706 0 18 4.02944 18 9C18 13.9706 13.9706 18 9 18C4.02944 18 0 13.9706 0 9Z" fill="#0BA11B"/>
<path fill-rule="evenodd" clip-rule="evenodd" d="M13.9501 5.3268C14.2032 5.57579 14.2066 5.98281 13.9576 6.23591L7.17498 13.1303L4.04103 9.9447C3.79204 9.6916 3.79537 9.28458 4.04846 9.03559C4.30156 8.7866 4.70858 8.78993 4.95757 9.04302L7.17498 11.297L13.041 5.33423C13.29 5.08114 13.697 5.07781 13.9501 5.3268Z" fill="#0BA11B" stroke="#0BA11B" stroke-width="0.5" stroke-linecap="round"/>
</svg>
