<svg width="26" height="26" viewBox="0 0 26 26" fill="none" xmlns="http://www.w3.org/2000/svg">
<path d="M13 0C5.82018 0 0 5.82018 0 13C0 20.1798 5.82018 26 13 26C20.1798 26 26 20.1798 26 13C26 5.82018 20.1798 0 13 0Z" fill="#EAEAEA"/>
<path d="M13.0939 7.03528C11.9927 7.03528 11.0736 7.41993 10.3379 8.04469C9.60226 8.66946 9.17173 9.17646 9.04785 10.7059H11.2938C11.3427 9.94116 11.5255 9.76451 11.8413 9.47393C12.1571 9.18334 12.5494 9.00134 13.0197 9.00134C13.49 9.00134 13.8731 9.1344 14.1699 9.43798C14.4673 9.74081 14.6157 10.1125 14.6157 10.5697C14.6157 11.027 14.4727 11.4063 14.189 11.716L12.8339 13.0688C12.4378 13.4649 12.3552 13.783 12.2374 14.0239C12.1197 14.2648 12.2351 14.6311 12.2351 15.1259V16.0588H13.7646V15.4226C13.7646 14.9286 13.9856 14.5447 14.2089 14.2725C14.2945 14.1738 14.4635 14.053 14.6073 13.9107C14.7495 13.7677 14.9499 13.601 15.154 13.4091C15.3582 13.2179 15.5364 13.0596 15.6603 12.9357C15.7834 12.8126 15.9692 12.6016 16.2047 12.3049C16.6123 11.8101 16.8203 11.1915 16.8203 10.4489C16.8203 9.37222 16.4762 8.53487 15.7834 7.93381C15.089 7.33504 14.1951 7.03528 13.0939 7.03528Z" fill="#989898"/>
<path d="M12.9542 16.9343C12.5642 16.9343 12.2308 17.0712 11.9517 17.3427C11.6734 17.6149 11.5342 17.9391 11.5342 18.3169C11.5342 18.6939 11.6764 19.0159 11.9609 19.282C12.2454 19.5481 12.5826 19.6804 12.9718 19.6804C13.3618 19.6804 13.696 19.5443 13.9744 19.2728C14.2519 19.0006 14.3919 18.6756 14.3919 18.2986C14.3919 17.9216 14.2489 17.5996 13.9644 17.3327C13.6815 17.0666 13.3442 16.9343 12.9542 16.9343Z" fill="#989898"/>
</svg>
