<svg width="50" height="50" viewBox="0 0 50 50" fill="none" xmlns="http://www.w3.org/2000/svg">
<circle cx="24.9995" cy="25" r="25" fill="#F9F9F9"/>
<path fill-rule="evenodd" clip-rule="evenodd" d="M20.3592 11.0998C20.1063 11.1789 18.9053 12.3247 16.9847 14.319L14.0029 17.4155L14.0391 26.9548L14.0752 36.4941L14.4351 37.1275C14.633 37.4759 15.016 37.9501 15.286 38.1812C16.2221 38.9821 16.4043 39 23.656 39H30.2435V37.51V36.02H23.7051H17.1665L16.9628 35.7189C16.7847 35.4557 16.759 34.5213 16.759 28.2816V21.1453L19.2137 21.0988C21.6571 21.0525 21.6717 21.0503 22.3837 20.6459C23.18 20.1936 23.8785 19.3436 24.0843 18.5768C24.1588 18.2992 24.2201 17.1427 24.2205 16.0065L24.2213 13.9408H28.4511C31.8972 13.9408 32.7279 13.9765 32.935 14.1331C33.1828 14.3207 33.19 14.6276 33.2239 26.6091L33.2586 38.8929L33.6167 38.8028C34.4926 38.5821 35.4701 37.602 35.817 36.5959C36.0563 35.9023 36.0688 14.1111 35.8302 13.4418C35.515 12.5572 34.8816 11.8219 34.0873 11.4184L33.32 11.0286L27.036 11.0027C23.5689 10.9885 20.5759 11.032 20.3592 11.0998ZM21.4503 15.919C21.4046 17.5396 21.3681 17.7845 21.1483 17.9509C20.9634 18.0906 20.4361 18.1399 19.1248 18.1399H17.3514L19.3119 16.1081C20.3901 14.9906 21.3241 14.0763 21.3873 14.0763C21.4505 14.0763 21.479 14.9056 21.4503 15.919ZM19.7701 25.59V27.08H25.0068H30.2435V25.59V24.1H25.0068H19.7701V25.59ZM19.7701 31.55V33.04H25.0068H30.2435V31.55V30.06H25.0068H19.7701V31.55Z" fill="#00A6CA"/>
</svg>
