<svg width="43" height="33" viewBox="0 0 43 33" fill="none" xmlns="http://www.w3.org/2000/svg">
<path fill-rule="evenodd" clip-rule="evenodd" d="M19.828 0.261158C19.384 0.434675 15.917 3.21482 9.57849 8.4802L0 16.437L1.0214 17.7103C1.58324 18.4108 2.07925 18.9884 2.1237 18.9939C2.168 18.9995 3.07773 18.2776 4.14512 17.3896C5.21266 16.5018 6.12794 15.8174 6.17931 15.8689C6.23052 15.9206 6.27313 19.1002 6.27405 22.9349L6.27559 29.907L6.6341 30.6813C7.02722 31.5299 7.81423 32.3101 8.70059 32.7297C9.22921 32.9799 10.1762 33 21.422 33H33.5724L34.3962 32.5413C34.8491 32.2889 35.4182 31.8404 35.6607 31.5447C36.5151 30.5024 36.5715 30.0827 36.5715 24.7774V19.9348L34.9951 18.6225L33.4186 17.3103L33.3417 23.2733C33.2685 28.9494 33.2505 29.2468 32.9663 29.4557C32.7237 29.6337 31.7772 29.675 27.9292 29.675H23.1907V26.2727V22.8704H21.4989H19.8071V26.2727V29.675H14.8942C9.9916 29.675 9.98068 29.6742 9.74183 29.3312C9.53235 29.0306 9.50328 27.9819 9.51005 20.9415L9.51774 12.8955L15.2173 8.17863C18.352 5.58437 21.0484 3.41154 21.2095 3.3503C21.3703 3.2889 21.657 3.30266 21.8465 3.38092C22.036 3.45917 26.374 7.00406 31.4865 11.2585C38.2021 16.8466 40.8337 18.9506 40.9675 18.839C41.0695 18.7538 41.5686 18.1791 42.0764 17.5616L43 16.439L38.4784 12.6845L33.9569 8.93008V4.53337V0.136819H32.3452H30.7335L30.6918 3.15652L30.6502 6.17607L27.2002 3.31612C24.8135 1.33768 23.537 0.383022 23.0586 0.219093C22.1594 -0.0889702 20.6747 -0.069639 19.828 0.261158ZM19.8071 15.0606V16.6844H21.4989H23.1907V15.0606V13.4367H21.4989H19.8071V15.0606ZM13.0398 24.5716V26.2727H14.7316H16.4235V24.5716V22.8704H14.7316H13.0398V24.5716ZM26.5744 24.5716V26.2727H28.1893H29.8042V24.5716V22.8704H28.1893H26.5744V24.5716Z" fill="#00A6CA"/>
</svg>
