<svg width="41" height="33" viewBox="0 0 41 33" fill="none" xmlns="http://www.w3.org/2000/svg">
<path fill-rule="evenodd" clip-rule="evenodd" d="M10.3923 5.90479C5.1573 9.15235 0.707539 11.9648 0.503868 12.1546C0.0227396 12.603 -0.126687 13.322 0.11135 14.0428C0.480283 15.16 0.363874 15.143 7.98292 15.1918L14.8565 15.2358L14.9005 22.2713L14.9445 29.3067L13.0474 29.2591L11.1503 29.2114L11.1057 24.1179L11.0612 19.0244H9.29473H7.52841V24.16V29.2956H4.66455H1.80069V31.1478V33H10.2238H18.6469V24.0758V15.1516H20.5H22.3531V24.0758V33H30.7762H39.1993V31.1478V29.2956H36.3336H33.4679L33.5119 22.2657L33.5558 15.2358L36.7261 15.19C40.263 15.1388 40.5532 15.0588 40.8887 14.0428C41.1267 13.322 40.9773 12.603 40.4961 12.1546C40.2925 11.9648 35.8427 9.15235 30.6077 5.90479C22.8319 1.08084 20.9816 0 20.5 0C20.0184 0 18.1681 1.08084 10.3923 5.90479ZM26.7361 7.82703L32.7073 11.5314L26.6037 11.5755C23.2466 11.5999 17.7542 11.5999 14.3983 11.5755L8.29659 11.5314L14.272 7.7984C17.5583 5.74516 20.3637 4.07819 20.5061 4.09402C20.6484 4.10968 23.452 5.78962 26.7361 7.82703ZM29.8497 22.2236V29.2114L27.9545 29.2591L26.0593 29.3067V22.3413C26.0593 18.5105 26.1122 15.3232 26.1768 15.2585C26.2417 15.1939 27.0945 15.1622 28.072 15.1883L29.8497 15.2358V22.2236Z" fill="#00A6CA"/>
</svg>
