<svg width="43" height="33" viewBox="0 0 43 33" fill="none" xmlns="http://www.w3.org/2000/svg">
<path d="M31.3284 25.4089L29.1682 21.6401V20.7519H29.8883C30.3123 20.7519 30.6684 20.6599 30.9564 20.4758C31.2444 20.2838 31.4284 20.0197 31.5085 19.6837H29.1682V18.7955H31.4965C31.4244 18.4914 31.2764 18.2394 31.0524 18.0393C30.8284 17.8313 30.5164 17.7272 30.1163 17.7272H29.1682V16.8391H34.5808V17.7272H32.6966C32.9766 18.0313 33.1526 18.3874 33.2246 18.7955H34.5808V19.6837H33.2486C33.1686 20.2758 32.9406 20.7399 32.5646 21.076C32.1885 21.4041 31.7045 21.6281 31.1124 21.7481L33.4647 25.4089H31.3284Z" fill="#00A6CA"/>
<path fill-rule="evenodd" clip-rule="evenodd" d="M9.1072 3.71347L9.06706 7.42693L4.5599 11.1457C2.0811 13.1909 0.0297391 14.9338 0.00132322 15.0188C-0.0269424 15.1037 0.401101 15.7124 0.95258 16.3712L1.95526 17.569L3.75749 16.0765C4.74889 15.2554 5.62166 14.5838 5.69714 14.5838C5.77787 14.5838 5.83456 17.0999 5.83456 20.6778C5.83456 27.2632 5.832 27.2399 6.66809 28.3361C6.8888 28.6255 7.47216 29.0608 7.97778 29.3135L8.88949 29.7691H15.2542H21.6189L21.1229 28.8294C20.85 28.3126 20.5139 27.6046 20.3757 27.2563L20.1245 26.6227L14.7714 26.5797C9.67281 26.5387 9.40835 26.5227 9.20523 26.2447C9.02812 26.0025 8.99188 24.7462 8.99188 18.8586V11.7642L14.1239 7.53593C18.4703 3.95493 19.3276 3.30903 19.7244 3.31609C20.1061 3.32286 20.8604 3.87554 23.7966 6.29992L27.4003 9.27562L28.0063 9.00755C28.3397 8.86021 29.1672 8.5795 29.8453 8.38375L31.0781 8.02787L26.7015 4.42732C24.2944 2.44708 22.0143 0.658979 21.6347 0.453753C21.0641 0.145237 20.7362 0.0805871 19.7418 0.0801361C18.1122 0.0795347 17.6885 0.304306 14.7803 2.71214L12.3747 4.70396L12.3334 2.35191L12.2919 0H10.7197H9.14749L9.1072 3.71347Z" fill="#00A6CA"/>
<path fill-rule="evenodd" clip-rule="evenodd" d="M31.8719 32.3249C38.0165 32.3249 42.9977 27.3437 42.9977 21.1991C42.9977 15.0544 38.0165 10.0732 31.8719 10.0732C25.7273 10.0732 20.7461 15.0544 20.7461 21.1991C20.7461 27.3437 25.7273 32.3249 31.8719 32.3249ZM31.7977 28.8668C36.074 28.8668 39.5406 25.4001 39.5406 21.1238C39.5406 16.8475 36.074 13.3809 31.7977 13.3809C27.5213 13.3809 24.0547 16.8475 24.0547 21.1238C24.0547 25.4001 27.5213 28.8668 31.7977 28.8668Z" fill="#00A6CA"/>
</svg>
