<svg width="46" height="30" viewBox="0 0 46 30" fill="none" xmlns="http://www.w3.org/2000/svg">
<path fill-rule="evenodd" clip-rule="evenodd" d="M4.14535 0.116343C3.13267 0.319044 1.69151 1.21626 1.07457 2.02806C0.112278 3.29445 0.0180515 3.87906 0.00872806 8.64372L0 13.0733L20.8785 13.1239L41.757 13.1746L41.8088 21.4878C41.8663 30.7326 41.7644 30.1607 43.222 29.4144C44.0445 28.9933 45.02 27.9746 45.5719 26.9609C45.8935 26.3701 45.9276 25.394 45.9796 15.2654C46.0305 5.36387 46.0022 4.12417 45.7072 3.34721C45.2632 2.177 44.3799 1.21188 43.1635 0.567741L42.1538 0.0329135L23.5069 0.00304565C13.2512 -0.0132819 4.53853 0.037692 4.14535 0.116343ZM41.4668 4.71953C41.8247 5.07873 41.8644 5.3352 41.814 6.95959L41.757 8.79405H23.011H4.26497L4.20804 6.95959C4.11599 3.99275 1.83334 4.31393 23.011 4.31393C40.9076 4.31393 41.0663 4.31751 41.4668 4.71953ZM0.00436479 21.7864C0.0083322 25.5095 0.0486013 26.0067 0.412413 26.8141C0.954164 28.017 1.8748 28.9542 3.07475 29.5247L4.0666 29.996L20.6802 29.998L37.2937 30V27.9093V25.8185H21.2167H5.13959L4.65279 25.3297C4.17174 24.8471 4.16579 24.7973 4.16579 21.2478V17.6548H2.08289H0L0.00436479 21.7864Z" fill="#00A6CA"/>
</svg>
