<svg width="53" height="26" viewBox="0 0 53 26" fill="none" xmlns="http://www.w3.org/2000/svg">
<path fill-rule="evenodd" clip-rule="evenodd" d="M26.1016 0.150324C23.4015 0.589509 21.8533 1.31322 17.435 4.20199C13.6324 6.68803 11.7436 7.62654 8.18388 8.79823C6.68373 9.29211 5.11973 9.88852 4.70832 10.1238C3.52761 10.7987 1.92481 12.4972 1.24231 13.7969C0.288552 15.6128 0 17.0044 0 19.7881V22.1615H1.67699H3.35399L3.43708 19.8824C3.5289 17.358 3.73371 16.4931 4.5617 15.1319C5.48636 13.6117 6.38516 13.0415 9.35376 12.0926C12.8028 10.9902 15.6819 9.55809 19.4793 7.05589C22.9797 4.74945 24.0242 4.2103 25.9 3.74089C27.0505 3.45316 27.5432 3.41942 29.499 3.49491C32.9392 3.62798 35.0665 4.34817 38.0636 6.39471C38.9115 6.97368 40.2781 7.90611 41.1004 8.46684C42.9121 9.70203 44.7792 10.6397 46.3613 11.1093C48.779 11.8269 50.0064 13.7534 49.3876 15.8593C48.954 17.3351 47.4145 18.6429 46.1106 18.6429C45.6574 18.6429 45.5512 18.5425 45.0812 17.6699C44.501 16.5932 43.6277 15.7978 42.4211 15.2475C41.7715 14.9511 41.3447 14.8846 40.0901 14.8846C38.6501 14.8844 38.4912 14.9183 37.5411 15.4281C36.3265 16.0796 35.5132 16.9297 34.9426 18.1439C34.5908 18.8923 34.5203 19.2704 34.5215 20.4022C34.5234 22.1855 35.0547 23.4146 36.3169 24.5559C37.5528 25.6736 38.6499 26.0501 40.4134 25.9621C42.58 25.854 44.2996 24.8136 45.171 23.0831L45.5912 22.2489L46.812 22.0449C48.4049 21.7786 49.5866 21.2109 50.7337 20.1601C52.4047 18.6293 53.1134 16.8138 52.9854 14.3915C52.8885 12.5586 52.3163 11.232 51.0523 9.90963C49.9809 8.78879 49.246 8.36176 47.3409 7.75273C45.4774 7.15697 44.6342 6.69395 41.911 4.77152C37.939 1.96752 35.9796 0.997346 33.0582 0.388629C31.1477 -0.00945178 27.7905 -0.124446 26.1016 0.150324ZM11.2003 15.0271C9.52528 15.5682 8.34618 16.5991 7.62181 18.1558C7.28153 18.8868 7.20862 19.2843 7.207 20.4173C7.20539 21.6462 7.26067 21.9031 7.72963 22.8457C8.74643 24.8894 10.55 26 12.8515 26C15.0551 26 16.8899 24.9225 17.8805 23.0469L18.3477 22.1623L24.6522 22.1619L30.9567 22.1615V20.4022V18.6429H24.6439H18.3314L17.9925 17.9632C17.0569 16.0862 15.2721 14.9479 13.1238 14.8587C12.366 14.827 11.6159 14.8928 11.2003 15.0271ZM14.05 18.6356C14.9602 19.1176 15.2942 20.5374 14.7176 21.4732C13.8251 22.9212 11.9918 22.9535 11.0361 21.5381C9.74755 19.6297 11.9399 17.5183 14.05 18.6356ZM41.2842 18.622C41.9565 18.9978 42.3901 19.8593 42.2938 20.6282C42.194 21.4237 41.7674 22.0016 41.0021 22.3779C40.2102 22.7674 39.4327 22.6225 38.6871 21.9464C37.4707 20.8435 37.9597 18.7888 39.5474 18.3315C40.0961 18.1735 40.6463 18.2655 41.2842 18.622Z" fill="#00A6CA"/>
</svg>
