<svg width="33" height="39" viewBox="0 0 33 39" fill="none" xmlns="http://www.w3.org/2000/svg">
<path d="M15.1929 20L12 14.7227V13.479H13.0643C13.6911 13.479 14.2173 13.3501 14.643 13.0924C15.0687 12.8235 15.3407 12.4538 15.459 11.9832H12V10.7395H15.4412C15.3348 10.3137 15.116 9.96078 14.7849 9.68067C14.4538 9.38936 13.9926 9.2437 13.4013 9.2437H12V8H20V9.2437H17.2151C17.629 9.66947 17.8891 10.1681 17.9956 10.7395H20V11.9832H18.031C17.9128 12.8123 17.5758 13.4622 17.02 13.9328C16.4642 14.3922 15.7487 14.7059 14.8736 14.8739L18.3503 20H15.1929Z" fill="#00A6CA"/>
<path fill-rule="evenodd" clip-rule="evenodd" d="M11.0236 24.1047C10.1138 24.357 9.29062 24.7609 8.47756 25.354L7.74637 25.8874L7.32183 25.463C6.62774 24.7688 5.99348 24.54 4.58434 24.475C3.87023 24.4421 3.01227 24.4858 2.61139 24.5755C1.40444 24.8457 0.397522 25.7905 0.185116 26.8522L0.100826 27.2737H2.59512C4.68329 27.2737 5.12369 27.3081 5.30061 27.4849C5.48223 27.6667 5.51181 28.2083 5.51181 31.3566C5.51181 34.0245 5.46812 35.0608 5.35049 35.1784C5.25329 35.2756 4.7829 35.3398 4.16746 35.3398C3.55202 35.3398 3.08164 35.2756 2.98444 35.1784C2.87111 35.0651 2.82312 34.3061 2.82312 32.6242V30.2313H1.41156H0V32.6938C0 35.682 0.136854 36.2903 1.00476 37.1581C1.74012 37.8936 2.58786 38.1629 4.16746 38.1629C5.66815 38.1629 6.56953 37.8936 7.25663 37.2399L7.79221 36.7305L8.23155 37.0914C8.94593 37.6782 10.0935 38.2693 10.951 38.4924C11.5728 38.654 12.518 38.7006 15.1693 38.7006H18.5863L24.8166 35.9309C31.7346 32.8553 31.9268 32.7397 32.6238 31.236C32.931 30.5731 32.9968 30.2447 32.9999 29.3546C33.0032 28.4021 32.9519 28.1712 32.56 27.3752C31.7729 25.7762 30.4016 24.9398 28.5673 24.9397C27.5178 24.9395 27.4359 24.9645 25.1699 25.9722C23.8927 26.5401 22.7979 27.0048 22.7369 27.0048C22.6757 27.0048 22.6835 26.6701 22.7539 26.261C22.9188 25.3044 22.8006 24.7029 22.3617 24.264L22.0105 23.9128L16.8196 23.9248C13.1176 23.9334 11.455 23.985 11.0236 24.1047ZM19.5508 27.0384C19.3756 27.5984 18.6688 28.4937 18.0366 28.9567C17.1211 29.6271 16.4134 29.828 14.9655 29.828H13.7123V31.3067V32.7855L14.8886 32.7832C15.5356 32.7819 16.4581 32.6956 16.9387 32.5914C17.4435 32.4818 20.015 31.4327 23.0285 30.1066C25.8973 28.8443 28.3957 27.8114 28.5806 27.8114C29.7623 27.8114 30.4857 29.1485 29.8595 30.1753C29.639 30.5368 28.8415 30.93 23.6364 33.2437L17.6663 35.8973L14.7819 35.8537C11.9815 35.8115 11.8751 35.7998 11.1317 35.4513C8.22012 34.0866 7.52308 30.3638 9.7602 28.1267C10.3807 27.5063 11.1472 27.0664 11.9289 26.8822C12.2074 26.8166 14.0575 26.7569 16.0403 26.7494L19.6456 26.736L19.5508 27.0384Z" fill="#00A6CA"/>
<path d="M8.44444 23C5.73292 20.8332 4 17.525 4 13.8181C4 7.29114 9.37258 2 16 2C22.6274 2 28 7.29114 28 13.8181C28 17.525 26.2671 20.8332 23.5556 23" stroke="#00A6CA" stroke-width="3"/>
</svg>
