<svg width="29" height="41" viewBox="0 0 29 41" fill="none" xmlns="http://www.w3.org/2000/svg">
<path fill-rule="evenodd" clip-rule="evenodd" d="M12.2022 0.180589C10.5376 0.659645 8.7077 1.87711 7.76132 3.13546C6.51038 4.79845 5.94857 6.47476 5.95147 8.53628C5.95452 10.7082 6.68533 12.6965 8.03337 14.2001C8.42008 14.6316 8.7106 15.0064 8.679 15.0328C8.64724 15.0593 8.13673 15.3337 7.54439 15.6425C4.28176 17.3433 1.65789 20.6107 0.513511 24.3979C0.137495 25.6419 0.0938323 26.0473 0.032308 28.8572C-0.033949 31.8813 -0.0273843 31.9656 0.337487 32.7613C1.16768 34.5725 2.32413 35.3322 4.43458 35.453C5.75545 35.5284 5.78232 35.5229 5.86628 35.1647C5.98719 34.648 6.40764 32.3729 6.40764 32.2349C6.40764 32.1718 5.86567 32.1201 5.20325 32.1201C3.42775 32.1201 3.29295 31.9748 3.22547 29.9903C3.08761 25.9317 4.1894 22.8809 6.66549 20.4649C7.72102 19.435 9.27333 18.3013 9.46523 18.4201C9.52309 18.4559 9.6069 18.8884 9.65148 19.3811C9.7469 20.437 10.1719 21.3397 10.9951 22.2355L11.5917 22.8845L10.4499 29.117C9.82201 32.5448 9.30829 35.6021 9.30829 35.9109C9.30829 36.4299 9.47851 36.6429 11.5658 38.7361C13.7939 40.9706 13.8319 41 14.4989 41C15.1659 41 15.2039 40.9706 17.4321 38.7361C19.5829 36.5793 19.6896 36.4435 19.6883 35.8654C19.6876 35.5317 19.178 32.4699 18.5559 29.0614L17.4248 22.8643L18.0338 22.2017C18.8421 21.3223 19.3809 20.1354 19.3827 19.2303C19.3836 18.8353 19.4413 18.4767 19.5111 18.4335C19.7219 18.3028 21.2274 19.3868 22.3324 20.4649C24.8085 22.8809 25.9102 25.9317 25.7724 29.9903C25.7049 31.9748 25.5701 32.1201 23.7946 32.1201C23.1322 32.1201 22.5902 32.1469 22.5902 32.1798C22.5902 32.2701 23.043 34.7475 23.1358 35.1647C23.2157 35.5232 23.2416 35.5284 24.5633 35.453C26.6754 35.3322 27.8302 34.5728 28.6622 32.7573C29.0297 31.9557 29.0355 31.8814 28.9646 28.8532C28.8994 26.0648 28.8527 25.6341 28.4816 24.3979C27.3477 20.6205 24.7179 17.3442 21.4535 15.6425C20.8611 15.3337 20.3506 15.0593 20.3189 15.0328C20.2873 15.0064 20.5654 14.6453 20.9372 14.2307C22.3716 12.6307 23.0482 10.7691 23.0482 8.42237C23.0482 4.81835 20.833 1.62924 17.4759 0.400137C16.3453 -0.0136975 13.3159 -0.139853 12.2022 0.180589ZM15.7151 3.3501C17.4458 3.72229 19.0923 5.3565 19.6221 7.22771C20.61 10.7174 17.2704 14.4165 13.7347 13.7488C11.1178 13.2547 9.25272 11.1246 9.24264 8.61895C9.23608 6.96484 9.61469 6.06368 10.8282 4.84468C11.6784 3.99068 12.001 3.77588 12.8269 3.51362C13.9602 3.15398 14.6275 3.11616 15.7151 3.3501ZM15.7172 17.215L16.2102 17.3139L16.15 18.3812C16.0952 19.3554 16.047 19.487 15.5974 19.8899C15.2395 20.2106 14.9478 20.3312 14.5305 20.3312C13.4417 20.3312 12.8196 19.5307 12.8196 18.1295C12.8196 17.3811 12.8567 17.2833 13.1631 17.2242C13.7303 17.1146 15.1905 17.1094 15.7172 17.215ZM15.4024 36.0227L14.4989 36.9397L13.6011 36.0227L12.7033 35.1056L13.5316 30.5891C13.9872 28.105 14.4 25.9692 14.4489 25.8429C14.4977 25.7166 14.9356 27.749 15.4218 30.3594L16.3057 35.1056L15.4024 36.0227Z" fill="#00A6CA"/>
</svg>
