<svg width="14" height="19" viewBox="0 0 14 19" fill="none" xmlns="http://www.w3.org/2000/svg">
<path d="M12.0909 7.59039V5.02023C12.1182 3.71826 11.5979 2.45909 10.6438 1.51825C9.68975 0.577408 8.37957 0.031506 7 0C5.62042 0.031506 4.31025 0.577408 3.35616 1.51825C2.40207 2.45909 1.88176 3.71826 1.90909 5.02023V7.59039H0V17.799C0 18.1175 0.13409 18.423 0.372773 18.6482C0.611456 18.8735 0.935179 19 1.27273 19H12.7273C13.0648 19 13.3885 18.8735 13.6272 18.6482C13.8659 18.423 14 18.1175 14 17.799V7.59039H12.0909ZM7.63636 13.7336V15.397H6.36364V13.6795C6.05382 13.5291 5.80782 13.2832 5.66647 12.9827C5.52511 12.6822 5.49689 12.3451 5.58649 12.0274C5.6761 11.7096 5.87813 11.4304 6.15908 11.2359C6.44002 11.0414 6.78299 10.9435 7.13106 10.9582C7.47913 10.973 7.81138 11.0997 8.07268 11.3172C8.33398 11.5346 8.50862 11.8299 8.56762 12.154C8.62662 12.478 8.56643 12.8113 8.39704 13.0987C8.22765 13.386 7.95925 13.61 7.63636 13.7336ZM10.8182 7.59039H3.18182V5.02023C3.15438 4.03674 3.54057 3.08299 4.25601 2.36736C4.97144 1.65173 5.95796 1.23241 7 1.20101C8.04204 1.23241 9.02856 1.65173 9.74399 2.36736C10.4594 3.08299 10.8456 4.03674 10.8182 5.02023V7.59039Z" fill="#2C2C2C"/>
</svg>
