<svg width="30" height="17" viewBox="0 0 30 17" fill="none" xmlns="http://www.w3.org/2000/svg">
<path d="M1.20392 16.0415L1.20391 16.0415C0.919632 15.8683 0.740175 15.7132 0.655261 15.4137C0.57507 15.131 0.58136 14.724 0.619789 14.0593C0.778701 11.3092 1.77786 8.60161 3.4536 6.3784C5.66076 3.45004 8.86534 1.51716 12.5586 0.88504L1.20392 16.0415ZM1.20392 16.0415C1.29035 16.0942 1.37519 16.1365 1.50226 16.1683C1.6263 16.1995 1.78804 16.2201 2.02803 16.2342C2.50766 16.2626 3.32153 16.2662 4.81726 16.2664L8.0341 16.2668L8.13411 16.2668V16.1668V14.9782V13.7896V13.6896H8.03411H5.53763H3.1583M1.20392 16.0415L3.1583 13.6896M3.1583 13.6896L3.2129 13.346C3.52379 11.3901 4.25449 9.62449 5.41463 8.02591L5.41464 8.0259L5.68958 7.64696L6.89369 8.84714L6.96428 8.77631L6.89369 8.84714L8.18064 10.1298L8.25133 10.2002L8.32192 10.1297L9.15819 9.29398L9.99446 8.45825L10.0651 8.38762L9.99455 8.31688L8.71106 7.03078L8.64028 7.10142L8.71106 7.03077L7.5102 5.82757L7.88929 5.55288L7.8893 5.55287C9.48923 4.39324 11.3007 3.64387 13.2124 3.35026L13.5568 3.29738V4.97332V6.76579V6.86579H13.6568H14.8462H16.0356H16.1356V6.76579V4.97332V3.29763L16.4798 3.3512L16.4952 3.25239L16.4798 3.3512C17.3765 3.49074 18.3451 3.76068 19.279 4.13187L20.2346 4.5117L20.2954 4.53587L20.3419 4.48981L21.2026 3.63724L21.1322 3.56619L21.2026 3.63723L22.0632 2.78465L22.1636 2.68516L22.0363 2.62359L20.8782 2.06331C18.9569 1.13387 17.0242 0.716006 14.7373 0.734056L14.7373 0.734056C13.9915 0.740019 13.0123 0.807339 12.5587 0.885038L3.1583 13.6896ZM13.7496 14.1506L13.6788 14.2214L13.7496 14.2921L14.5872 15.1291L15.4246 15.966L15.4953 16.0366L15.566 15.966L19.7757 11.7602C21.5762 9.96127 22.6332 8.91623 23.2576 8.33552C23.5706 8.0444 23.771 7.87368 23.9003 7.78315C23.9657 7.73731 24.006 7.71706 24.0289 7.70985C24.0292 7.70978 24.0294 7.70972 24.0296 7.70965C24.0958 7.7702 24.2023 7.90389 24.3353 8.09469C24.475 8.29517 24.6373 8.54864 24.8017 8.82149C25.131 9.3681 25.4651 9.98622 25.642 10.4055L25.642 10.4055C25.9895 11.2284 26.3368 12.4478 26.4796 13.346L26.5342 13.6896H24.263H21.8746H21.7746V13.7896V14.9782V16.1668V16.2668L21.8746 16.2668L24.9833 16.2664C26.4255 16.2662 27.2126 16.2624 27.6788 16.2341C27.9122 16.2198 28.0705 16.1992 28.1927 16.1681C28.3179 16.1362 28.4024 16.094 28.4886 16.0415L28.4365 15.9561L28.4886 16.0415C28.7728 15.8683 28.9523 15.7132 29.0372 15.4137C29.1174 15.131 29.1111 14.724 29.0727 14.0593C28.8762 10.6604 27.4904 7.54108 25.0505 5.0013C24.812 4.7531 24.5812 4.52696 24.4009 4.36238C24.311 4.28025 24.2325 4.21238 24.1714 4.16453C24.1411 4.14076 24.1132 4.12052 24.0893 4.10573C24.0775 4.09839 24.0647 4.09119 24.0518 4.08552C24.0414 4.08094 24.0202 4.0724 23.9948 4.0724C23.9673 4.0724 23.9465 4.084 23.9442 4.08516C23.937 4.08889 23.9306 4.09304 23.9258 4.09628C23.916 4.10296 23.9049 4.1115 23.8935 4.12074C23.8703 4.13955 23.8392 4.1665 23.8013 4.20044C23.7251 4.26859 23.6176 4.36846 23.4826 4.49621C23.2123 4.7519 22.8297 5.1213 22.363 5.57677C21.4297 6.48781 20.1591 7.74422 18.7765 9.12615L13.7496 14.1506Z" fill="#00A6CA" stroke="white" stroke-width="0.2"/>
</svg>
