<svg width="30" height="20" viewBox="0 0 30 20" fill="none" xmlns="http://www.w3.org/2000/svg">
<path fill-rule="evenodd" clip-rule="evenodd" d="M2.70349 0.0775621C2.04305 0.212696 1.10316 0.810843 0.700809 1.35204C0.0732247 2.1963 0.0117727 2.58604 0.00569221 5.76248L0 8.71552L13.6164 8.74923L27.2329 8.78308L27.2666 14.3252C27.3041 20.4884 27.2376 20.1071 28.1883 19.6096C28.7246 19.3288 29.3609 18.6497 29.7208 17.9739C29.9305 17.5801 29.9528 16.9294 29.9867 10.1769C30.0199 3.57591 30.0014 2.74944 29.809 2.23148C29.5195 1.45134 28.9434 0.807922 28.1501 0.378494L27.4916 0.0219423L15.3306 0.00203043C8.64207 -0.00885462 2.95991 0.025128 2.70349 0.0775621ZM27.0436 3.14635C27.277 3.38582 27.3028 3.5568 27.27 4.63973L27.2329 5.8627H15.0072H2.7815L2.74437 4.63973C2.68434 2.66183 1.19566 2.87595 15.0072 2.87595C26.6789 2.87595 26.7824 2.87834 27.0436 3.14635ZM0.0028466 14.5243C0.00543404 17.0063 0.0316965 17.3378 0.268965 17.8761C0.622281 18.678 1.2227 19.3028 2.00527 19.6831L2.65213 19.9973L13.4871 19.9987L24.322 20V18.6062V17.2124H13.837H3.3519L3.03443 16.8865C2.7207 16.5647 2.71682 16.5315 2.71682 14.1652V11.7698H1.35841H0L0.0028466 14.5243Z" fill="#00A6CA"/>
</svg>
