<svg width="29" height="25" viewBox="0 0 29 25" fill="none" xmlns="http://www.w3.org/2000/svg">
<path d="M15.6015 2.53392H3.50416C2.64378 2.53392 2.55869 2.61664 2.55869 3.46521V15.6665C2.55869 16.4749 2.66033 16.5742 3.47343 16.5742H25.0208C25.8623 16.5742 25.9663 16.4797 25.9663 15.6287C25.9663 12.277 25.9781 8.92532 25.9663 5.57361C25.9663 5.06306 26.1104 4.92124 26.6021 4.96142C27.1288 4.99097 27.6567 4.99097 28.1834 4.96142C28.4599 4.96142 28.5356 5.05597 28.5356 5.3207C28.5356 8.93714 28.5521 12.5512 28.5025 16.1653C28.4789 17.8411 27.1174 19.0679 25.4297 19.0703C22.338 19.0703 19.2463 19.0868 16.1546 19.0561C15.6157 19.0561 15.4786 19.2192 15.5235 19.7155C15.5578 20.1664 15.5578 20.6191 15.5235 21.0699C15.4975 21.4434 15.6275 21.5427 15.9962 21.5427C17.4664 21.5214 18.9367 21.5427 20.4069 21.5238C20.856 21.5238 21.0592 21.6065 21.012 22.1005C20.9726 22.5724 20.9726 23.0468 21.012 23.5187C21.0427 23.9347 20.9198 24.06 20.4849 24.0553C17.6485 24.034 14.8309 24.0553 12.0016 24.0553C10.6638 24.0553 9.32592 24.0387 7.98335 24.0553C7.5957 24.0553 7.49879 23.9324 7.51061 23.5825C7.5437 23.0749 7.5437 22.5656 7.51061 22.058C7.47279 21.6065 7.66188 21.5332 8.06135 21.5403C9.53156 21.5616 11.0018 21.5403 12.472 21.5592C12.8998 21.5592 13.044 21.4458 13.0014 21.0227C12.94 20.3916 13.2662 19.543 12.8691 19.1861C12.5216 18.8717 11.6872 19.0844 11.0703 19.0821C8.43008 19.0821 5.79221 19.0821 3.15197 19.0821C1.3863 19.0773 0.0390008 17.834 0.0248187 16.0589C-0.0082729 11.7097 -0.0082729 7.36056 0.0248187 3.01138C0.0413645 1.28353 1.40048 4.52002e-05 3.1307 4.52002e-05C10.5574 4.52002e-05 17.9841 4.52002e-05 25.4108 4.52002e-05C26.0277 -0.0033 26.6313 0.179106 27.1431 0.523529C27.6548 0.867951 28.0511 1.35844 28.2803 1.93118C28.5001 2.48901 28.4741 2.52919 27.8785 2.52919H15.6015V2.53392Z" fill="#00A5C9"/>
<path d="M20.4822 9.5481C20.4822 10.9214 20.468 12.2947 20.4822 13.6704C20.4822 14.0486 20.3687 14.1431 20.0095 14.1431C19.4635 14.1147 18.9151 14.1266 18.3691 14.1431C18.0972 14.1431 17.9625 14.0982 17.9649 13.7767C17.9743 10.9734 17.9743 8.16849 17.9649 5.36201C17.9649 5.06419 18.0665 4.972 18.3572 4.98146C18.9222 5.00037 19.4895 5.00982 20.0544 4.98146C20.4255 4.96019 20.4869 5.11146 20.4822 5.43765C20.4727 6.79913 20.4822 8.17243 20.4822 9.5481Z" fill="#00A5C9"/>
<path d="M15.5261 11.2231C15.5261 12.0504 15.5261 12.8777 15.5261 13.705C15.5261 14.0052 15.467 14.147 15.1266 14.1328C14.5262 14.1068 13.9235 14.1163 13.3207 14.1328C13.0844 14.1328 12.9922 14.0572 12.9922 13.8114C12.9922 12.1001 12.9922 10.3903 12.9922 8.68219C12.9922 8.43164 13.0986 8.36073 13.3326 8.36545C13.9353 8.36545 14.5357 8.382 15.1384 8.36545C15.4339 8.36545 15.5308 8.45764 15.5261 8.75073C15.5142 9.57093 15.5237 10.4006 15.5261 11.2231Z" fill="#00A5C9"/>
<path d="M8.03702 12.584C8.07957 12.22 7.84083 11.6385 8.1292 11.3643C8.41757 11.0901 8.98958 11.291 9.43632 11.2863C10.5425 11.2863 10.5425 11.2863 10.5425 12.3996C10.5425 12.8322 10.5189 13.2671 10.5425 13.6973C10.5685 14.0613 10.4243 14.1464 10.0911 14.1322C9.54542 14.1038 8.99867 14.1038 8.45303 14.1322C8.08429 14.1558 7.9992 14.0116 8.02284 13.6807C8.04647 13.3498 8.03702 13 8.03702 12.584Z" fill="#00A5C9"/>
</svg>
