<svg width="30" height="30" viewBox="0 0 30 30" fill="none" xmlns="http://www.w3.org/2000/svg">
<circle cx="15" cy="15" r="14.5" fill="white" stroke="#707070"/>
<path fill-rule="evenodd" clip-rule="evenodd" d="M13.5067 8.15055C12.0598 8.57645 10.8792 9.7653 10.4546 11.2239C10.3609 11.546 10.3358 11.9731 10.3121 13.6508L10.2833 15.6869H11.0101H11.7368L11.7384 13.8463C11.7393 12.834 11.7699 11.877 11.8064 11.7198C12.0732 10.5695 13.1101 9.62014 14.3255 9.41328C15.7087 9.17775 17.1376 10.0498 17.655 11.445C17.7781 11.7771 17.7942 12.0086 17.8316 13.9929C17.8706 16.0649 17.8803 16.1937 18.0218 16.5338C18.1038 16.7309 18.1984 16.9201 18.2319 16.9541C18.4578 17.1838 18.4239 17.1854 13.1464 17.1854H8V17.8686V18.5518L10.1798 18.569L12.3596 18.5862L12.3996 19.596C12.4215 20.1515 12.474 20.7137 12.5161 20.8454C12.6372 21.2243 13.0788 21.8295 13.4033 22.0611C13.9732 22.4678 14.2587 22.5578 14.9834 22.5592C15.5911 22.5604 15.6722 22.5449 16.0651 22.3525C16.7925 21.9962 17.2741 21.4207 17.4698 20.6737C17.6415 20.0185 17.6746 20.0521 16.8577 20.0521H16.1439L16.1006 20.2815C16.0516 20.5409 15.7419 20.9241 15.4672 21.0653C14.988 21.3116 14.2798 21.0887 13.9922 20.6009C13.8467 20.3542 13.8347 20.2659 13.8347 19.4437V18.5536H17.5954H21.3561L21.5273 18.3834C21.7524 18.1597 21.8097 17.8467 21.6734 17.5848C21.5329 17.3148 21.3456 17.2084 20.9315 17.1636C20.2405 17.0888 19.662 16.6854 19.3829 16.0836C19.2535 15.8046 19.2417 15.641 19.206 13.6345C19.1645 11.3042 19.1486 11.1912 18.7514 10.409C18.1761 9.27639 17.0485 8.37741 15.8509 8.0968C15.2177 7.94845 14.1069 7.97392 13.5067 8.15055Z" fill="#707070"/>
</svg>
