<svg width="25" height="29" viewBox="0 0 25 29" fill="none" xmlns="http://www.w3.org/2000/svg">
<path fill-rule="evenodd" clip-rule="evenodd" d="M10.0148 2.79552C7.38329 3.57009 5.23624 5.73218 4.46412 8.38481C4.29363 8.97062 4.24796 9.74744 4.2048 12.7986L4.15258 16.5014H5.47422H6.79598L6.79884 13.154C6.80051 11.313 6.85607 9.57267 6.92248 9.28675C7.40774 7.19481 9.29344 5.46818 11.5038 5.09198C14.0194 4.66364 16.6181 6.2495 17.559 8.78696C17.7829 9.3909 17.8121 9.8119 17.8801 13.4206C17.9512 17.189 17.9687 17.4231 18.2261 18.0417C18.3753 18.4002 18.5472 18.7441 18.6081 18.806C19.019 19.2238 18.9573 19.2266 9.35937 19.2266H0V20.4692V21.7117L3.96432 21.743L7.92864 21.7742L8.00125 23.6108C8.04119 24.6209 8.13657 25.6433 8.21312 25.8829C8.43333 26.572 9.23645 27.6726 9.82675 28.0938C10.8631 28.8335 11.3823 28.9972 12.7003 28.9998C13.8055 29.0019 13.953 28.9737 14.6675 28.6237C15.9905 27.9758 16.8662 26.9292 17.2222 25.5706C17.5345 24.379 17.5947 24.4402 16.109 24.4402H14.8108L14.732 24.8574C14.6429 25.3291 14.0797 26.026 13.5802 26.2828C12.7086 26.7308 11.4207 26.3254 10.8976 25.4382C10.6331 24.9896 10.6113 24.8291 10.6113 23.3337V21.7149H17.4506H24.2899L24.6013 21.4054C25.0106 20.9986 25.1148 20.4293 24.8671 19.9531C24.6116 19.4621 24.2708 19.2686 23.5178 19.1871C22.2611 19.051 21.2091 18.3173 20.7015 17.2228C20.4661 16.7155 20.4447 16.4179 20.3797 12.7689C20.3042 8.53091 20.2753 8.32533 19.5529 6.90285C18.5068 4.84303 16.456 3.20811 14.278 2.69777C13.1264 2.42797 11.1063 2.4743 10.0148 2.79552Z" fill="#707070"/>
<ellipse cx="19.7303" cy="5.04346" rx="5" ry="5.04346" fill="white"/>
<ellipse cx="19.7304" cy="5.04321" rx="2.5" ry="2.52173" fill="#707070"/>
</svg>
