<svg width="44" height="44" viewBox="0 0 44 44" fill="none" xmlns="http://www.w3.org/2000/svg">
<circle cx="22" cy="22" r="22" fill="#FCD800"/>
<path fill-rule="evenodd" clip-rule="evenodd" d="M21.6539 10.1787C21.5259 10.279 20.9336 11.2534 20.3373 12.3442C19.7411 13.4349 19.2002 14.3476 19.1351 14.3725C19.0701 14.3974 18.085 14.1456 16.9461 13.8131C15.8072 13.4806 14.704 13.2086 14.4945 13.2086C13.9812 13.2086 13.5754 13.5929 13.5754 14.0788C13.5754 14.2623 13.9968 15.8342 14.5117 17.5718L15.4482 20.7311L16.0999 20.3757C16.5946 20.1061 16.7941 19.937 16.9275 19.6744L17.1032 19.3285L16.5831 17.5372C16.2971 16.5521 16.0811 15.7281 16.1031 15.7061C16.1252 15.6841 16.8689 15.8772 17.756 16.1353C19.572 16.6635 20.0177 16.7091 20.3236 16.3979C20.4353 16.2844 20.8995 15.5003 21.3552 14.6556C21.811 13.8109 22.2046 13.1202 22.2299 13.1207C22.2552 13.1211 22.6673 13.8465 23.1458 14.7327C23.6242 15.619 24.0995 16.4027 24.202 16.4742C24.5175 16.6945 25.0414 16.6228 26.7068 16.1317C27.5883 15.8718 28.3287 15.6782 28.3521 15.7016C28.3756 15.7249 28.1623 16.5467 27.8781 17.5279C27.1909 19.9012 27.0946 19.6766 29.3215 20.8968C30.9125 21.7687 30.9888 21.8227 30.7812 21.9329C29.2841 22.7275 27.8518 23.5424 27.6898 23.6915C27.3161 24.0357 27.3368 24.2901 27.8903 26.1593C28.1759 27.1237 28.3958 27.9264 28.3792 27.9431C28.3624 27.9597 27.5667 27.7453 26.6109 27.4666C24.7432 26.9221 24.4416 26.8992 24.0967 27.275C23.9932 27.3878 23.5419 28.1513 23.0937 28.9715C22.6455 29.7919 22.2539 30.4629 22.2236 30.4629C22.1932 30.4629 21.7891 29.7676 21.3255 28.9178C20.8619 28.0681 20.4044 27.3022 20.3089 27.216C19.9636 26.9045 19.5915 26.9425 17.8137 27.4707C16.8786 27.7485 16.0998 27.9622 16.083 27.9455C16.0662 27.9288 16.2836 27.1194 16.566 26.1469C17.011 24.6144 17.0663 24.3392 16.9812 24.082C16.9272 23.9189 16.812 23.7232 16.7253 23.6472C16.5439 23.4883 10.9864 20.437 10.953 20.4779C10.9408 20.4928 10.7215 20.8861 10.4654 21.3519L10 22.1988L11.5345 23.0388C12.3785 23.5008 13.4704 24.1015 13.9611 24.3736L14.8532 24.8686L14.7257 25.3024C14.6556 25.5411 14.368 26.5165 14.0868 27.4699C13.8055 28.4233 13.5754 29.3237 13.5754 29.4706C13.5754 30.0208 13.9941 30.4629 14.5152 30.4629C14.6221 30.4629 15.7042 30.1725 16.9199 29.8174C18.1355 29.4623 19.1595 29.2042 19.1955 29.2438C19.2314 29.2833 19.7458 30.2037 20.3385 31.2889C20.9313 32.3742 21.5003 33.3345 21.6031 33.4228C21.8558 33.64 22.6041 33.64 22.8562 33.4228C22.9587 33.3345 23.5262 32.3742 24.1173 31.2889C24.7084 30.2037 25.2222 29.284 25.2591 29.2454C25.2962 29.2068 26.3179 29.4648 27.5299 29.8187C28.7419 30.1727 29.8247 30.4625 29.9363 30.4627C30.4625 30.4634 30.8844 30.0249 30.8844 29.4771C30.8844 29.3339 30.5964 28.2477 30.2443 27.0635C29.6653 25.1156 29.6185 24.8995 29.7538 24.7969C29.836 24.7345 30.7913 24.2025 31.8766 23.6148C33.6515 22.6536 33.8636 22.5134 33.9858 22.222C34.1546 21.8195 34.0817 21.377 33.8062 21.1299C33.693 21.0284 32.7096 20.4605 31.6209 19.868C30.5322 19.2755 29.6331 18.7826 29.6227 18.7726C29.6124 18.7626 29.8921 17.7744 30.2442 16.5765C30.5963 15.3785 30.8844 14.2514 30.8844 14.0718C30.8844 13.5844 30.4754 13.2081 29.9478 13.2099C29.7286 13.2106 28.6385 13.479 27.5252 13.8064C26.4119 14.1338 25.4383 14.4007 25.3616 14.3994C25.2753 14.3979 24.8059 13.6275 24.131 12.3795C23.5308 11.2699 22.9349 10.2798 22.8066 10.1792C22.5021 9.94044 21.958 9.94025 21.6539 10.1787Z" fill="#2C2C2C"/>
<ellipse cx="20.1148" cy="20.6797" rx="1.01276" ry="1.00956" fill="#2C2C2C"/>
<ellipse cx="23.7515" cy="24.3083" rx="1.01276" ry="1.00956" fill="#2C2C2C"/>
<rect width="8.94203" height="1.41748" transform="matrix(0.77199 -0.635634 0.638026 0.770015 18.188 24.7551)" fill="#2C2C2C"/>
</svg>
