<svg width="32" height="29" viewBox="0 0 32 29" fill="none" xmlns="http://www.w3.org/2000/svg">
<path fill-rule="evenodd" clip-rule="evenodd" d="M8.37797 0.0310121C6.28772 0.435206 4.50172 1.72718 3.53805 3.53228C2.86977 4.784 2.76003 5.4498 2.76003 8.25211V10.7654L2.41234 10.8348C1.81709 10.9537 0.853927 11.6962 0.454055 12.3444L0.0759048 12.9575L0.0379524 16.7378L0 20.5181H1.31759H2.63519V17.2431C2.63519 14.4805 2.66565 13.9245 2.82957 13.691L3.02383 13.4139H10.9981H18.9722L18.8588 13.0191C18.5865 12.0714 17.4955 11.0233 16.5864 10.8361L16.2431 10.7654V8.25211C16.2431 5.44643 16.1336 4.78449 15.4613 3.52518C14.3257 1.39827 12.2486 0.106791 9.81367 0.0136878C9.19569 -0.00999301 8.54963 -0.00214096 8.37797 0.0310121ZM10.9198 2.94861C11.8746 3.30532 12.6561 4.03718 13.1486 5.03601L13.559 5.86795L13.6034 8.26993L13.6479 10.6719H9.50156H5.35527L5.39971 8.26993L5.44416 5.86795L5.85452 5.03601C6.81668 3.08484 8.94089 2.20952 10.9198 2.94861Z" fill="#00A6CA"/>
<path d="M7 18H30C30.5523 18 31 18.4477 31 19V28H7V18Z" fill="white" stroke="#00A6CA" stroke-width="2"/>
<path d="M14.116 22.694L13.864 21.966L12.436 22.526L12.492 21H11.68L11.736 22.54L10.238 22.008L10 22.75L11.526 23.198L10.476 24.472L11.134 24.962L12.086 23.646L13.052 24.962L13.724 24.472L12.646 23.184L14.116 22.694Z" fill="#00A6CA"/>
<path d="M21.116 22.694L20.864 21.966L19.436 22.526L19.492 21H18.68L18.736 22.54L17.238 22.008L17 22.75L18.526 23.198L17.476 24.472L18.134 24.962L19.086 23.646L20.052 24.962L20.724 24.472L19.646 23.184L21.116 22.694Z" fill="#00A6CA"/>
<path d="M28.116 22.694L27.864 21.966L26.436 22.526L26.492 21H25.68L25.736 22.54L24.238 22.008L24 22.75L25.526 23.198L24.476 24.472L25.134 24.962L26.086 23.646L27.052 24.962L27.724 24.472L26.646 23.184L28.116 22.694Z" fill="#00A6CA"/>
</svg>
