<svg width="25" height="25" viewBox="0 0 25 25" fill="none" xmlns="http://www.w3.org/2000/svg">
<path d="M18.8279 1.61865L23.1748 6.1499V23.3812H6.93652V23.4374H23.2303V6.20693L18.8279 1.61865Z" fill="#909090"/>
<path d="M18.7743 1.5625H6.88135V23.3813H23.1751V6.15078L18.7735 1.5625" fill="#F4F4F4"/>
<path d="M6.76172 2.73438H1.76953V8.06797H17.4727V2.73438H6.76172Z" fill="#7A7B7C"/>
<path d="M17.5562 7.97739H1.87109V2.63989H17.5562V7.97739Z" fill="#DD2025"/>
<path d="M7.07187 3.54211H6.05078V7.29211H6.85391V6.02727L7.03125 6.03743C7.20357 6.03446 7.37427 6.00359 7.53672 5.94602C7.67914 5.89703 7.81016 5.8197 7.92187 5.71868C8.03555 5.62244 8.12517 5.50099 8.18359 5.36399C8.26195 5.13625 8.28994 4.89422 8.26562 4.65461C8.26075 4.48345 8.23074 4.31393 8.17656 4.15149C8.12724 4.03423 8.05405 3.92852 7.96165 3.84109C7.86925 3.75367 7.75965 3.68643 7.63984 3.64368C7.53626 3.60618 7.42923 3.57896 7.32031 3.56243C7.23783 3.5497 7.15455 3.54291 7.07109 3.54211H7.07187ZM6.92344 5.3343H6.85391V4.17805H7.00469C7.07123 4.17325 7.13801 4.18347 7.20008 4.20794C7.26215 4.23242 7.31792 4.27053 7.36328 4.31946C7.45728 4.44525 7.5075 4.59837 7.50625 4.7554C7.50625 4.94758 7.50625 5.1218 7.33281 5.24446C7.20786 5.31318 7.06564 5.34412 6.92344 5.33352" fill="#464648"/>
<path d="M9.79141 3.53207C9.70469 3.53207 9.62031 3.53832 9.56094 3.54066L9.375 3.54535H8.76562V7.29535H9.48281C9.75689 7.30286 10.0298 7.25641 10.2859 7.15863C10.4921 7.07685 10.6747 6.94502 10.8172 6.77504C10.9558 6.60352 11.0552 6.40382 11.1086 6.18988C11.17 5.94759 11.1999 5.69841 11.1977 5.44847C11.2128 5.15329 11.19 4.85737 11.1297 4.56801C11.0725 4.35501 10.9654 4.1587 10.8172 3.99535C10.7009 3.86345 10.5586 3.75705 10.3992 3.68285C10.2623 3.6195 10.1183 3.57282 9.97031 3.54379C9.91145 3.53406 9.85184 3.52962 9.79219 3.53051L9.79141 3.53207ZM9.65 6.60629H9.57187V4.21254H9.58203C9.74309 4.19401 9.90605 4.22307 10.0508 4.29613C10.1568 4.38076 10.2431 4.48738 10.3039 4.60863C10.3695 4.73624 10.4073 4.87629 10.4148 5.01957C10.4219 5.19144 10.4148 5.33207 10.4148 5.44847C10.418 5.58257 10.4094 5.71668 10.3891 5.84926C10.365 5.98537 10.3205 6.11707 10.257 6.23988C10.1852 6.35407 10.0882 6.45028 9.97344 6.52113C9.87705 6.58347 9.76291 6.61256 9.64844 6.60394" fill="#464648"/>
<path d="M13.6172 3.54529H11.7188V7.29529H12.5219V5.80779H13.5375V5.11091H12.5219V4.24216H13.6156V3.54529" fill="#464648"/>
<path d="M17.0165 15.8243C17.0165 15.8243 19.5072 15.3727 19.5072 16.2235C19.5072 17.0743 17.9642 16.7282 17.0165 15.8243ZM15.1751 15.8891C14.7794 15.9766 14.3938 16.1046 14.0243 16.2712L14.3368 15.5681C14.6493 14.8649 14.9736 13.9063 14.9736 13.9063C15.3465 14.5339 15.7803 15.1232 16.2689 15.6657C15.9004 15.7206 15.5353 15.7958 15.1751 15.8907V15.8891ZM14.1892 10.811C14.1892 10.0696 14.429 9.86727 14.6157 9.86727C14.8025 9.86727 15.0126 9.95712 15.0197 10.6009C14.9588 11.2482 14.8233 11.8863 14.6157 12.5024C14.3315 11.9851 14.1843 11.4036 14.1884 10.8134L14.1892 10.811ZM10.5572 19.0266C9.79309 18.5696 12.1595 17.1626 12.5884 17.1173C12.5861 17.1181 11.3572 19.5048 10.5572 19.0266ZM20.2345 16.3243C20.2267 16.2462 20.1564 15.3813 18.6173 15.4181C17.9758 15.4077 17.3346 15.4529 16.7009 15.5532C16.087 14.9348 15.5584 14.2372 15.129 13.479C15.3996 12.6973 15.5633 11.8826 15.6158 11.0571C15.5931 10.1196 15.3689 9.58212 14.6501 9.58993C13.9314 9.59774 13.8267 10.2266 13.9212 11.1626C14.0138 11.7915 14.1885 12.4056 14.4407 12.9891C14.4407 12.9891 14.1087 14.0227 13.6697 15.0509C13.2306 16.079 12.9306 16.6181 12.9306 16.6181C12.1671 16.8666 11.4484 17.2359 10.8017 17.7118C10.1579 18.311 9.89622 18.7712 10.2353 19.2313C10.5275 19.6282 11.5501 19.7181 12.4642 18.5204C12.9499 17.9018 13.3936 17.2514 13.7923 16.5735C13.7923 16.5735 15.1861 16.1915 15.6197 16.0868C16.0532 15.9821 16.5775 15.8993 16.5775 15.8993C16.5775 15.8993 17.8501 17.1798 19.0775 17.1345C20.3048 17.0891 20.2454 16.4009 20.2376 16.3259" fill="#DD2025"/>
<path d="M18.7144 1.62268V6.21096H23.1151L18.7144 1.62268Z" fill="#909090"/>
<path d="M18.7739 1.5625V6.15078H23.1747L18.7739 1.5625Z" fill="#F4F4F4"/>
<path d="M7.01182 3.48206H5.99072V7.23206H6.79697V5.96799L6.9751 5.97815C7.14742 5.97518 7.31812 5.94432 7.48057 5.88674C7.62298 5.83774 7.754 5.7604 7.86572 5.6594C7.97854 5.56291 8.06734 5.44147 8.1251 5.30471C8.20345 5.07698 8.23144 4.83495 8.20713 4.59534C8.20225 4.42417 8.17224 4.25465 8.11807 4.09221C8.06875 3.97495 7.99556 3.86924 7.90315 3.78182C7.81075 3.69439 7.70116 3.62716 7.58135 3.5844C7.47728 3.54653 7.36973 3.51906 7.26025 3.50237C7.17777 3.48964 7.09449 3.48285 7.01104 3.48206H7.01182ZM6.86338 5.27424H6.79385V4.11799H6.94541C7.01196 4.11319 7.07873 4.12341 7.1408 4.14789C7.20287 4.17236 7.25864 4.21047 7.304 4.2594C7.398 4.38519 7.44822 4.53831 7.44697 4.69534C7.44697 4.88752 7.44697 5.06174 7.27354 5.1844C7.14859 5.25312 7.00637 5.28406 6.86416 5.27346" fill="white"/>
<path d="M9.73096 3.47201C9.64424 3.47201 9.55986 3.47826 9.50049 3.4806L9.31689 3.48529H8.70752V7.23529H9.42471C9.69879 7.2428 9.97167 7.19635 10.2278 7.09857C10.434 7.01679 10.6166 6.88496 10.7591 6.71498C10.8976 6.54346 10.9971 6.34376 11.0505 6.12982C11.1119 5.88753 11.1418 5.63835 11.1396 5.38842C11.1547 5.09323 11.1319 4.79731 11.0716 4.50795C11.0144 4.29495 10.9073 4.09864 10.7591 3.93529C10.6428 3.80339 10.5005 3.69699 10.3411 3.62279C10.2042 3.55945 10.0602 3.51276 9.91221 3.48373C9.85335 3.47401 9.79373 3.46956 9.73408 3.47045L9.73096 3.47201ZM9.59189 6.54623H9.51377V4.15248H9.52393C9.68499 4.13395 9.84795 4.16301 9.99268 4.23607C10.0987 4.3207 10.185 4.42732 10.2458 4.54857C10.3114 4.67618 10.3492 4.81623 10.3567 4.95951C10.3638 5.13139 10.3567 5.27201 10.3567 5.38842C10.3599 5.52251 10.3513 5.65662 10.331 5.7892C10.3069 5.92531 10.2624 6.05701 10.1989 6.17982C10.1271 6.29401 10.0301 6.39022 9.91533 6.46107C9.81894 6.52342 9.7048 6.5525 9.59033 6.54389" fill="white"/>
<path d="M13.5566 3.48523H11.6582V7.23523H12.4613V5.74773H13.477V5.05085H12.4613V4.1821H13.5551V3.48523" fill="white"/>
</svg>
