<svg width="16" height="22" viewBox="0 0 16 22" fill="none" xmlns="http://www.w3.org/2000/svg">
<path fill-rule="evenodd" clip-rule="evenodd" d="M4.93813 0.175057C4.41918 0.448805 4.1772 0.876035 4.1772 1.51825V2.06253L2.9544 2.09574C1.78784 2.12735 1.71007 2.14202 1.26594 2.41472C0.714391 2.75348 0.218506 3.36475 0.0794521 3.87752C0.0124509 4.12487 -0.0119479 6.88828 0.00539809 12.2715C0.0299874 19.8889 0.0403762 20.3136 0.208785 20.6279C0.456489 21.0903 0.916252 21.5542 1.36563 21.7954C1.74533 21.9991 1.77164 22 7.9895 22C14.2074 22 14.2337 21.9991 14.6134 21.7954C15.0627 21.5542 15.5225 21.0903 15.7702 20.6279C15.938 20.3148 15.9491 19.9132 15.9739 13.2709L16 6.24503H14.997H13.9939V12.9203V19.5957L13.7599 19.8279L13.526 20.0602H7.9895H2.45299L2.21911 19.8279L1.98513 19.5957V12.0898C1.98513 5.44952 2.00228 4.55967 2.13352 4.37364C2.26991 4.18023 2.35826 4.16329 3.22956 4.16329H4.1772V5.20416V6.24503H7.9895H11.8018V5.20596V4.16688L13.8898 4.14143L15.9777 4.11598L15.8507 3.7495C15.6758 3.2443 15.2526 2.74969 14.7071 2.41274C14.2691 2.1422 14.1898 2.12725 13.0246 2.09574L11.8018 2.06253V1.51825C11.8018 0.86979 11.5477 0.42004 11.0374 0.165594C10.7448 0.0195889 10.3852 9.62151e-05 7.98797 1.59059e-06C5.5258 -0.000187658 5.23902 0.0162769 4.93813 0.175057ZM9.65919 2.30761C9.77137 2.47755 9.80149 2.72992 9.78052 3.32482L9.75269 4.11598H7.9895H6.22631V3.25499C6.22631 2.66406 6.26739 2.34489 6.35707 2.23778C6.46858 2.10464 6.71095 2.08155 7.99893 2.08155C9.48687 2.08155 9.51232 2.08505 9.65919 2.30761ZM4.1772 12.7268V13.7204H7.9895H11.8018V12.7268V11.7332H7.9895H4.1772V12.7268ZM4.1772 16.8903V17.8838H7.9895H11.8018V16.8903V15.8967H7.9895H4.1772V16.8903Z" fill="#ACACAC"/>
</svg>
