<svg width="30" height="30" viewBox="0 0 30 30" fill="none" xmlns="http://www.w3.org/2000/svg">
<path d="M15.1085 8.11768C13.8379 8.11768 12.7773 8.5615 11.9285 9.28238C11.0796 10.0033 10.5829 10.5883 10.4399 12.353H13.0314C13.0879 11.4706 13.2988 11.2668 13.6632 10.9315C14.0276 10.5962 14.4802 10.3862 15.0229 10.3862C15.5655 10.3862 16.0076 10.5397 16.3499 10.89C16.6932 11.2394 16.8644 11.6683 16.8644 12.1959C16.8644 12.7236 16.6994 13.1612 16.372 13.5186L14.8085 15.0794C14.3514 15.5365 14.2561 15.9036 14.1202 16.1815C13.9844 16.4594 14.1176 16.8821 14.1176 17.453V18.5294H15.8823V17.7953C15.8823 17.2253 16.1373 16.7824 16.3949 16.4683C16.4938 16.3544 16.6888 16.215 16.8546 16.0509C17.0188 15.8859 17.2499 15.6936 17.4855 15.4721C17.7211 15.2515 17.9267 15.0689 18.0696 14.9259C18.2117 14.7839 18.4261 14.5403 18.6979 14.198C19.1682 13.6271 19.4082 12.9133 19.4082 12.0565C19.4082 10.8141 19.0111 9.84797 18.2117 9.15444C17.4105 8.46356 16.3791 8.11768 15.1085 8.11768Z" fill="#00A6CA"/>
<path d="M14.9461 19.5397C14.4961 19.5397 14.1114 19.6977 13.7894 20.0109C13.4682 20.325 13.3076 20.6991 13.3076 21.135C13.3076 21.57 13.4717 21.9415 13.8 22.2486C14.1282 22.5556 14.5173 22.7083 14.9664 22.7083C15.4164 22.7083 15.802 22.5512 16.1232 22.238C16.4435 21.9239 16.605 21.5489 16.605 21.1139C16.605 20.6789 16.44 20.3074 16.1117 19.9994C15.7853 19.6924 15.3961 19.5397 14.9461 19.5397Z" fill="#00A6CA"/>
<path d="M15 0C6.71559 0 0 6.71559 0 15C0 23.2844 6.71559 30 15 30C23.2844 30 30 23.2844 30 15C30 6.71559 23.2844 0 15 0ZM15 27.3529C8.17765 27.3529 2.64706 21.8224 2.64706 15C2.64706 8.17765 8.17765 2.64706 15 2.64706C21.8224 2.64706 27.3529 8.17765 27.3529 15C27.3529 21.8224 21.8224 27.3529 15 27.3529Z" fill="#00A6CA"/>
</svg>
