<svg width="56" height="53" viewBox="0 0 56 53" fill="none" xmlns="http://www.w3.org/2000/svg">
<path d="M26.4347 49.9704C22.2722 49.9693 18.1973 48.8065 14.6928 46.6197C11.1882 44.4329 8.40092 41.3138 6.6611 37.6319C4.92129 33.95 4.30188 29.8597 4.87628 25.8455C5.45068 21.8314 7.19481 18.0617 9.90201 14.9831C12.6092 11.9045 16.166 9.64603 20.151 8.47528C24.136 7.30453 28.3822 7.27057 32.3864 8.37742C36.3906 9.48428 39.985 11.6856 42.7438 14.7204C45.5026 17.7553 47.3101 21.4966 47.9521 25.501C48.8665 31.4105 47.4625 36.7528 43.8574 41.5789C43.3921 42.2013 43.1048 42.2132 42.595 41.6458C41.891 40.8579 40.7419 40.2748 40.4586 39.4002C40.1754 38.5256 41.3569 37.7495 41.8222 36.8867C43.1596 34.4751 43.8794 31.7849 43.9204 29.0444C43.9614 26.304 43.3224 23.5945 42.0578 21.146C40.7931 18.6975 38.9401 16.5824 36.6562 14.9805C34.3723 13.3786 31.725 12.3371 28.9392 11.9446C19.5967 10.5302 10.5373 17.0543 9.17379 26.1511C7.77786 35.4566 13.9321 43.8718 23.4284 45.5304C25.7037 45.9469 28.0427 45.9035 30.3 45.4026C32.5573 44.9018 34.6847 43.9542 36.5501 42.6189C37.1246 42.225 37.4362 42.225 37.8853 42.7411C38.4828 43.3991 39.1206 44.0213 39.7951 44.6045C40.2442 44.9985 40.2523 45.2231 39.7465 45.5973C36.8115 47.7776 33.3612 49.2054 29.7121 49.7498C28.6274 49.908 27.5314 49.9818 26.4347 49.9704Z" fill="#00A5C9"/>
<path d="M30.3241 19.6859C32.3598 19.6859 34.3996 19.7029 36.4352 19.6859C37.0959 19.6859 37.3766 19.7797 37.3312 20.2774C37.2693 20.9541 37.3023 21.6366 37.3312 22.3162C37.3312 22.6006 37.2073 22.7144 36.7738 22.7144C32.4713 22.7144 28.1687 22.7144 23.8662 22.7144C23.3996 22.7144 23.3336 22.5665 23.3377 22.302C23.3377 21.5769 23.3707 20.8518 23.3377 20.1266C23.3129 19.7456 23.5524 19.683 24.0314 19.6859C26.1207 19.6944 28.2224 19.6859 30.3241 19.6859Z" fill="#00A5C9"/>
<path d="M30.3241 27.2574C32.3598 27.2574 34.3996 27.2745 36.4352 27.2574C37.0959 27.2574 37.3766 27.3512 37.3312 27.8489C37.2693 28.5257 37.3023 29.2081 37.3312 29.8878C37.3312 30.1721 37.2073 30.2859 36.7738 30.2859C32.4713 30.2859 28.1687 30.2859 23.8662 30.2859C23.3996 30.2859 23.3336 30.138 23.3377 29.8736C23.3377 29.1484 23.3707 28.4233 23.3377 27.6982C23.3129 27.3171 23.5524 27.2546 24.0314 27.2574C26.1207 27.2659 28.2224 27.2574 30.3241 27.2574Z" fill="#00A5C9"/>
<path d="M30.3241 34.8287C32.3598 34.8287 34.3996 34.8458 36.4352 34.8287C37.0959 34.8287 37.3766 34.9225 37.3312 35.4202C37.2693 36.097 37.3023 36.7794 37.3312 37.4591C37.3312 37.7434 37.2073 37.8572 36.7738 37.8572C32.4713 37.8572 28.1687 37.8572 23.8662 37.8572C23.3996 37.8572 23.3336 37.7093 23.3377 37.4448C23.3377 36.7197 23.3707 35.9946 23.3377 35.2695C23.3129 34.8884 23.5524 34.8259 24.0314 34.8287C26.1207 34.8372 28.2224 34.8287 30.3241 34.8287Z" fill="#00A5C9"/>
<path d="M17.844 22.7144C15.5586 22.7144 15.5586 22.7144 15.5586 21.1901C15.5586 19.6658 15.5586 19.6858 17.8832 19.6858C20.2078 19.6858 20.2253 19.6858 20.2253 21.1815C20.2253 22.6772 20.2253 22.7144 17.844 22.7144Z" fill="#01A6C9"/>
<path d="M17.844 30.2859C15.5586 30.2859 15.5586 30.2859 15.5586 28.7616C15.5586 27.2373 15.5586 27.2573 17.8832 27.2573C20.2078 27.2573 20.2253 27.2573 20.2253 28.7531C20.2253 30.2488 20.2253 30.2859 17.844 30.2859Z" fill="#01A6C9"/>
<path d="M17.844 37.8572C15.5586 37.8572 15.5586 37.8572 15.5586 36.3329C15.5586 34.8086 15.5586 34.8286 17.8832 34.8286C20.2078 34.8286 20.2253 34.8286 20.2253 36.3243C20.2253 37.8201 20.2253 37.8572 17.844 37.8572Z" fill="#01A6C9"/>
</svg>
