<svg width="56" height="53" viewBox="0 0 56 53" fill="none" xmlns="http://www.w3.org/2000/svg">
<path fill-rule="evenodd" clip-rule="evenodd" d="M35.7949 17.8615C35.7949 20.147 34.7076 22.1955 32.9893 23.581C38.2859 25.2814 42.0918 29.972 42.0918 35.4922V41.3683H48.9889C49.4857 41.3683 49.8885 40.9924 49.8885 40.5288V36.8811C49.8885 33.0136 46.9482 30.1745 43.6898 30.1745V27.376C48.9344 27.376 52.8871 31.7952 52.8871 36.8811V40.5288C52.8871 42.538 51.1418 44.1668 48.9889 44.1668H7.00763C4.85468 44.1668 3.10938 42.538 3.10938 40.5288V36.8811C3.10938 31.7326 7.28322 27.376 12.6648 27.376V30.1745C9.14785 30.1745 6.10803 33.0761 6.10803 36.8811V40.5288C6.10803 40.9924 6.51079 41.3683 7.00763 41.3683H39.0932V35.4922C39.0932 30.0828 34.3943 25.6976 28.5979 25.6976H26.199C20.4026 25.6976 15.7037 30.0828 15.7037 35.4922H12.705C12.705 29.8205 16.7227 25.0245 22.2469 23.4478C20.622 22.0659 19.6022 20.0748 19.6022 17.8615C19.6022 13.6885 23.2271 10.3057 27.6986 10.3057C32.1701 10.3057 35.7949 13.6885 35.7949 17.8615ZM32.7963 17.8615C32.7963 20.4889 30.514 22.6189 27.6986 22.6189C24.8832 22.6189 22.6009 20.4889 22.6009 17.8615C22.6009 15.2341 24.8832 13.1041 27.6986 13.1041C30.514 13.1041 32.7963 15.2341 32.7963 17.8615Z" fill="#00A5C9"/>
<path fill-rule="evenodd" clip-rule="evenodd" d="M47.7892 20.6598C47.7892 23.2873 45.5069 25.4172 42.6915 25.4172C39.8761 25.4172 37.5938 23.2873 37.5938 20.6598C37.5938 18.0324 39.8761 15.9025 42.6915 15.9025C45.5069 15.9025 47.7892 18.0324 47.7892 20.6598ZM44.7906 20.6598C44.7906 21.7417 43.8508 22.6188 42.6915 22.6188C41.5322 22.6188 40.5924 21.7417 40.5924 20.6598C40.5924 19.578 41.5322 18.7009 42.6915 18.7009C43.8508 18.7009 44.7906 19.578 44.7906 20.6598Z" fill="#00A5C9"/>
<path fill-rule="evenodd" clip-rule="evenodd" d="M5.80898 19.8196C5.80898 22.9106 8.49407 25.4165 11.8063 25.4165C15.1185 25.4165 17.8036 22.9106 17.8036 19.8196C17.8036 16.7285 15.1185 14.2226 11.8063 14.2226C8.49407 14.2226 5.80898 16.7285 5.80898 19.8196ZM8.80763 19.8196C8.80763 21.3651 10.1502 22.618 11.8063 22.618C13.4624 22.618 14.8049 21.3651 14.8049 19.8196C14.8049 18.274 13.4624 17.0211 11.8063 17.0211C10.1502 17.0211 8.80763 18.274 8.80763 19.8196Z" fill="#00A5C9"/>
</svg>
