<svg width="59" height="53" viewBox="0 0 59 53" fill="none" xmlns="http://www.w3.org/2000/svg">
<path fill-rule="evenodd" clip-rule="evenodd" d="M3.27548 19.0677C3.72154 18.1071 4.55611 17.3832 5.56532 17.0814C5.75186 17.0255 13.5802 16.9901 22.9615 17.0025L40.0185 17.0251L40.6515 17.3874C42.0819 18.2059 42.5229 19.1972 42.5229 21.5929C42.5229 23.1009 42.5137 23.1497 42.2183 23.2046C42.0507 23.2359 41.5178 23.3261 41.0338 23.4053C40.5499 23.4844 40.0186 23.5851 39.8532 23.629C39.5543 23.7083 39.5523 23.6978 39.5148 21.8862C39.4776 20.0905 39.472 20.061 39.1386 19.897C38.8716 19.7657 35.3886 19.7301 22.6509 19.7286L6.50142 19.7267L6.16921 20.0502L5.83687 20.3736V27.9277C5.83687 34.5514 5.86286 35.5179 6.04765 35.7746L6.25829 36.0675H17.4867H28.7149V37.5213V38.9752L17.1743 38.938L5.63381 38.9008L4.9407 38.5449C4.16475 38.1464 3.61419 37.5767 3.24678 36.7923C3.01624 36.3 3 35.7166 3 27.963C3 19.8959 3.00785 19.644 3.27548 19.0677ZM9.95938 24.0333C10.4115 23.1203 11.3178 22.4274 12.3348 22.2172C13.3849 22.0003 14.6637 22.3492 15.4264 23.0609C16.3036 23.8793 16.7268 25.2491 16.432 26.3157C16.3212 26.7163 16.3595 26.8722 16.7225 27.5018C17.1038 28.163 17.1404 28.3305 17.1393 29.4126C17.1382 30.444 17.0906 30.6866 16.7734 31.2737C16.307 32.1373 15.3445 32.9615 14.4733 33.2431C13.4571 33.5716 11.8895 33.4573 11.0801 32.9956C10.2414 32.5171 9.41721 31.569 9.14417 30.7687C8.7987 29.7563 8.92689 28.3904 9.45255 27.4832C9.78367 26.9118 9.83728 26.7141 9.73344 26.4475C9.54555 25.9648 9.67199 24.6135 9.95938 24.0333ZM29.3931 25.8215C29.3965 24.5338 30.7721 22.9181 32.2338 22.4854C32.8475 22.3036 34.5179 22.3515 35.0479 22.566C35.8374 22.8857 36.5113 23.3907 36.9263 23.9737C37.248 24.4256 37.2763 24.528 37.1065 24.6254C36.3977 25.0319 35.371 25.6335 35.1188 25.79C34.8479 25.9583 34.7966 25.9436 34.5375 25.6229C33.9607 24.9091 32.7298 25.0747 32.3727 25.9142L32.2017 26.3157H30.7968H29.3917L29.3931 25.8215ZM19.5095 25.525V24.0754V22.6258H22.7497C24.5317 22.6258 26.1402 22.6815 26.3241 22.7496C27.2474 23.0913 27.469 23.9976 26.9351 25.2482L26.6446 25.9288L27.0743 26.5112C27.6846 27.3385 27.9026 28.046 27.9025 29.1986C27.9025 30.0347 27.837 30.336 27.5125 30.994C26.8497 32.3377 25.6825 33.1938 24.191 33.4302C23.291 33.5728 22.1496 33.4065 21.3696 33.019C20.2232 32.4497 19.253 31.101 19.0359 29.775L18.9442 29.2149L20.4114 29.2153L21.8786 29.2156L22.1493 29.7095C22.3096 30.0019 22.6196 30.2983 22.9096 30.4363C23.3335 30.6381 23.4676 30.647 23.9119 30.5021C24.5588 30.2914 24.9515 29.7854 24.9515 29.1629C24.9515 28.2609 24.1925 27.6335 23.1012 27.6335C22.8382 27.6335 22.6231 27.6026 22.6231 27.5647C22.6231 27.5269 22.8059 27.1036 23.0292 26.6241C23.2526 26.1445 23.4353 25.7011 23.4353 25.6386C23.4353 25.5762 22.552 25.525 21.4724 25.525H19.5095ZM13.8159 25.7578C13.9889 25.4612 13.9847 25.3849 13.7788 25.079C13.6028 24.8174 13.4341 24.7343 13.0793 24.7343C12.1362 24.7343 11.9004 25.9397 12.7843 26.2424C13.2277 26.3943 13.5263 26.254 13.8159 25.7578ZM32.1469 34.5788C33.6008 29.909 37.4104 26.7456 42.2522 26.1882C43.5243 26.0416 43.5563 26.0416 44.8919 26.1863C45.8462 26.2897 46.7621 26.4927 47.6293 26.7881L46.1511 29.3375C44.766 28.9539 42.9698 28.8708 41.7284 29.1456C38.7572 29.8034 36.2963 31.9216 35.1708 34.7899C34.769 35.8139 34.747 35.9657 34.747 37.7148C34.747 39.4639 34.769 39.6157 35.1708 40.6397C36.9554 45.1876 41.8067 47.495 46.4455 46.0021C48.7407 45.2636 50.6139 43.6592 51.6595 41.5365C52.3943 40.0447 52.5995 39.2104 52.5995 37.7148C52.5995 36.6363 52.4928 35.9017 52.1577 35.0164L53.9574 34.7238C54.3616 34.6581 54.7393 34.5353 55.0846 34.3657C55.3846 35.2787 55.4459 36.1311 55.4459 37.7148C55.4459 40.2111 55.2937 40.8903 54.2941 42.8543C53.1317 45.1382 51.4203 46.8505 49.1784 47.9729C47.6702 48.728 46.5264 49.0639 44.8701 49.2383C39.0709 49.8486 33.8836 46.429 32.1469 40.8508C31.8249 39.8165 31.7859 39.4784 31.7859 37.7148C31.7859 35.9512 31.8249 35.6132 32.1469 34.5788ZM13.8488 30.2859C14.359 29.8421 14.4446 29.137 14.0409 28.7028C13.5382 28.1621 12.7703 28.1103 12.2447 28.5817C11.6287 29.1341 11.7506 30.1047 12.4825 30.473C13.0403 30.7538 13.3613 30.7098 13.8488 30.2859Z" fill="#00A5C9"/>
<path d="M44.3246 40.1903C40.8181 40.1862 40.9065 40.2728 40.9065 36.8415V34.5266H42.3956H43.8847V35.9762V37.4258H45.3738H46.8629V38.8095V40.1932L44.3246 40.1903Z" fill="#00A5C9"/>
<path d="M49.027 37.2726L54.0136 32.4183L59.0002 37.2726H54.0136H49.027Z" fill="#00A5C9"/>
</svg>
