<svg width="28" height="27" viewBox="0 0 28 27" fill="none" xmlns="http://www.w3.org/2000/svg">
<path fill-rule="evenodd" clip-rule="evenodd" d="M13.5533 0.204561C13.4045 0.319396 12.7156 1.43486 12.0222 2.68355C11.3287 3.93214 10.6997 4.97701 10.624 5.00548C10.5484 5.03395 9.40278 4.74576 8.07827 4.36511C6.75375 3.98446 5.47067 3.67305 5.22708 3.67305C4.63013 3.67305 4.15815 4.11296 4.15815 4.66927C4.15815 4.8793 4.64823 6.67873 5.2471 8.66792L6.33616 12.2845L7.09414 11.8777C7.66946 11.5691 7.90149 11.3754 8.05664 11.0748L8.26094 10.6789L7.65607 8.62831C7.32339 7.50055 7.07219 6.55728 7.09778 6.53206C7.12348 6.50695 7.98843 6.72801 9.0201 7.02345C11.1322 7.6281 11.6505 7.68031 12.0062 7.32404C12.1361 7.19407 12.676 6.29651 13.206 5.3295C13.736 4.36259 14.1937 3.57187 14.2232 3.5724C14.2526 3.57292 14.7319 4.40335 15.2884 5.41786C15.8447 6.43236 16.3976 7.3295 16.5167 7.41145C16.8837 7.66361 17.4929 7.58155 19.4298 7.01935C20.455 6.72181 21.316 6.50012 21.3432 6.52692C21.3706 6.5536 21.1225 7.49445 20.792 8.6177C19.9928 11.3346 19.8808 11.0774 22.4706 12.4742C24.321 13.4723 24.4097 13.5342 24.1682 13.6603C22.4272 14.5699 20.7614 15.5028 20.5729 15.6735C20.1384 16.0675 20.1624 16.3587 20.8062 18.4985C21.1383 19.6025 21.3941 20.5214 21.3747 20.5405C21.3552 20.5595 20.4298 20.3141 19.3182 19.9951C17.1461 19.3718 16.7953 19.3455 16.3942 19.7757C16.2739 19.9049 15.749 20.7789 15.2278 21.7179C14.7065 22.6569 14.2511 23.4252 14.2159 23.4252C14.1806 23.4252 13.7105 22.6292 13.1714 21.6564C12.6323 20.6836 12.1002 19.8068 11.9891 19.7082C11.5875 19.3516 11.1547 19.3951 9.08723 19.9997C7.99967 20.3178 7.09403 20.5624 7.07444 20.5432C7.05495 20.5241 7.30776 19.5976 7.63616 18.4843C8.15365 16.73 8.218 16.4149 8.11906 16.1206C8.05621 15.9338 7.92226 15.7098 7.8214 15.6228C7.61046 15.4409 1.1472 11.9478 1.10833 11.9947C1.09409 12.0117 0.839039 12.462 0.541264 12.9952L0 13.9647L1.78462 14.9263C2.76617 15.4552 4.03608 16.1428 4.60669 16.4543L5.64424 17.021L5.49594 17.5176C5.41435 17.7909 5.07996 18.9074 4.75284 19.9988C4.42573 21.0903 4.15815 22.121 4.15815 22.2892C4.15815 22.9191 4.64512 23.4252 5.25106 23.4252C5.37548 23.4252 6.63393 23.0926 8.04775 22.6861C9.46146 22.2796 10.6524 21.9842 10.6942 22.0295C10.736 22.0748 11.3342 23.1284 12.0236 24.3707C12.7129 25.6131 13.3747 26.7124 13.4942 26.8135C13.7881 27.0622 14.6585 27.0622 14.9516 26.8135C15.0708 26.7124 15.7308 25.6131 16.4182 24.3707C17.1056 23.1284 17.7032 22.0756 17.7462 22.0314C17.7892 21.9871 18.9775 22.2825 20.3871 22.6877C21.7966 23.0929 23.0559 23.4246 23.1857 23.4248C23.7976 23.4257 24.2882 22.9237 24.2882 22.2967C24.2882 22.1327 23.9533 20.8892 23.5438 19.5336C22.8705 17.3038 22.8161 17.0564 22.9734 16.9389C23.069 16.8675 24.18 16.2585 25.4422 15.5857C27.5064 14.4853 27.7531 14.3249 27.8952 13.9912C28.0914 13.5305 28.0067 13.024 27.6863 12.7411C27.5547 12.6249 26.411 11.9748 25.1448 11.2965C23.8787 10.6182 22.833 10.0539 22.821 10.0426C22.809 10.0311 23.1343 8.89979 23.5437 7.52849C23.9532 6.15709 24.2882 4.86679 24.2882 4.66118C24.2882 4.10329 23.8126 3.67253 23.199 3.67452C22.9441 3.67536 21.6764 3.98268 20.3816 4.35744C19.0869 4.73221 17.9545 5.03773 17.8653 5.03626C17.765 5.03458 17.219 4.15267 16.4342 2.724C15.7362 1.45378 15.0431 0.320341 14.8939 0.205191C14.5398 -0.0681867 13.907 -0.0683968 13.5533 0.204561Z" fill="#00A6CA"/>
<ellipse cx="11.7633" cy="12.2257" rx="1.17782" ry="1.15571" fill="#00A6CA"/>
<ellipse cx="15.9928" cy="16.3796" rx="1.17782" ry="1.15571" fill="#00A6CA"/>
<rect width="10.3339" height="1.63324" transform="matrix(0.776887 -0.629641 0.643991 0.765033 9.52248 16.8911)" fill="#00A6CA"/>
</svg>
