<svg width="385" height="187" viewBox="0 0 385 187" fill="none" xmlns="http://www.w3.org/2000/svg">
<path d="M73.3269 126.6H57.4549V130.76H66.8949L58.9589 149H63.7909L73.3269 127.272V126.6ZM87.4114 144.552H89.4914V140.68H87.4114V126.6H82.4514L72.6274 142.472V144.552H83.0914V149H87.4114V144.552ZM83.6034 131.944L83.3794 136.584V140.84H78.0354L83.5714 131.944H83.6034ZM101.222 126.216C96.5821 126.216 92.8381 129.096 92.8381 133.928V141.736C92.8381 146.6 96.5821 149.448 101.222 149.448C105.798 149.448 109.542 146.6 109.542 141.736V133.928C109.542 129.096 105.798 126.216 101.222 126.216ZM101.222 145.256C99.1741 145.256 97.6701 144.2 97.4461 142.248C97.3821 141.704 97.3501 141.128 97.3501 140.456V135.24C97.3501 134.6 97.3821 133.992 97.4461 133.416C97.6701 131.4 99.1741 130.408 101.222 130.408C103.174 130.408 104.742 131.4 104.966 133.416C105.03 133.992 105.062 134.6 105.062 135.24V140.456C105.062 141.128 105.03 141.704 104.966 142.248C104.742 144.2 103.174 145.256 101.222 145.256Z" fill="#707070"/>
<path d="M21.7387 173.416C21.7387 177.016 24.3787 179.112 27.4187 179.112C29.6907 179.112 31.9947 177.912 32.5547 175.176H30.7467C30.2507 176.664 28.9547 177.416 27.4187 177.416C25.1307 177.416 23.6107 175.64 23.6107 173.416C23.6107 171.032 25.1307 169.368 27.4187 169.368C28.8907 169.384 30.1387 170.024 30.6987 171.416H32.4907C31.8987 168.888 29.6267 167.672 27.4347 167.672C24.3787 167.672 21.7387 169.8 21.7387 173.416ZM39.8949 171.288V175.704C39.8949 176.936 39.0469 177.736 37.9429 177.736C36.9189 177.736 36.2629 176.984 36.2789 175.752V171.288H34.5189V175.752C34.5189 177.64 35.2709 179.128 37.3989 179.128C38.4869 179.128 39.5429 178.792 40.0709 177.752C40.0709 179.416 41.4789 179.208 42.4709 179.032L42.4549 177.896C41.7189 177.976 41.6389 177.72 41.6389 176.792V171.288H39.8949ZM46.3698 172.408C46.2898 171.16 45.0418 170.968 43.9058 171.224L43.9218 172.408C44.7538 172.36 44.7538 172.712 44.7538 173.4V179H46.4818V174.536C46.4818 173.288 47.4098 172.616 48.4498 172.616C49.0098 172.616 49.5218 172.776 49.9858 173.08L50.4178 171.576C49.9218 171.208 49.2818 171.016 48.6418 171.032C47.6978 171.032 46.6738 171.512 46.3698 172.408ZM53.9242 172.408C53.8442 171.16 52.5962 170.968 51.4602 171.224L51.4762 172.408C52.3082 172.36 52.3082 172.712 52.3082 173.4V179H54.0362V174.536C54.0362 173.288 54.9642 172.616 56.0042 172.616C56.5642 172.616 57.0762 172.776 57.5402 173.08L57.9722 171.576C57.4762 171.208 56.8362 171.016 56.1962 171.032C55.2522 171.032 54.2282 171.512 53.9242 172.408ZM62.9074 171.112C60.8114 171.112 58.9554 172.408 58.9074 174.984C58.8274 177.592 60.6994 179.224 63.2434 179.176C64.2194 179.176 65.2594 178.92 66.1554 178.52L65.9314 177.224C65.0194 177.624 64.0914 177.752 63.1314 177.704C61.7234 177.704 60.6194 176.872 60.6194 175.464H66.3154C66.8274 172.904 65.6114 171.112 62.9074 171.112ZM62.8914 172.456C63.9954 172.456 64.9554 173.064 64.9074 174.232H60.6514C60.8914 173.016 61.7394 172.456 62.8914 172.456ZM76.0559 179V174.472C76.0559 172.568 75.0959 171.128 72.9999 171.128C71.9919 171.128 70.8079 171.496 70.3759 172.472C70.3759 171 69.0799 171.064 67.9599 171.272V172.408C68.7439 172.36 68.7759 172.616 68.7759 173.528V179H70.5359V174.616C70.5359 173.368 71.3999 172.52 72.4879 172.52C73.5279 172.536 74.3119 173.272 74.2959 174.472V179H76.0559ZM80.9293 168.92H79.3933L79.2173 171.304H77.6493V172.44L79.2173 172.552V176.056C79.2173 179.08 81.2813 179.688 83.9213 178.872L83.7453 177.56C82.1613 178.12 80.9293 177.992 80.9293 176.024V172.552H83.6013V171.304H80.9293V168.92ZM89.5952 175.816C89.6432 178.168 91.9312 179.256 94.1232 179.208C96.2192 179.208 98.5392 178.28 98.5392 175.816C98.5392 173.24 96.4592 172.792 94.1872 172.536C92.8912 172.36 91.6272 172.2 91.6272 170.936C91.6272 169.672 92.9552 169.256 93.9792 169.256C95.0832 169.256 96.3472 169.64 96.4272 170.84H98.1872C98.1392 168.552 96.1232 167.592 93.9952 167.592C91.8192 167.592 89.7872 168.68 89.7872 170.984C89.7872 173.224 91.8192 173.88 93.8672 174.056C95.1632 174.184 96.6832 174.328 96.6832 175.8C96.6832 177.192 95.2752 177.544 94.0912 177.544C92.8752 177.544 91.4992 177.08 91.4192 175.816H89.5952ZM108.003 173.848C107.587 171.96 105.939 171.048 104.259 171.064C102.259 171.08 100.211 172.456 100.211 175.112C100.211 177.784 102.259 179.128 104.275 179.128C105.971 179.128 107.651 178.168 108.051 176.216H106.387C106.035 177.16 105.171 177.624 104.307 177.624C103.139 177.624 101.939 176.776 101.939 175.112C101.939 173.48 103.155 172.616 104.339 172.616C105.235 172.616 106.051 173.016 106.387 173.848H108.003ZM117.721 175.112C117.721 172.408 115.641 171.064 113.577 171.096C111.561 171.128 109.577 172.456 109.577 175.112C109.577 177.8 111.609 179.144 113.641 179.144C115.673 179.144 117.721 177.8 117.721 175.112ZM111.305 175.112C111.305 173.48 112.425 172.664 113.577 172.632C114.761 172.6 115.977 173.432 115.977 175.112C115.977 176.76 114.825 177.592 113.673 177.608C112.489 177.624 111.305 176.792 111.305 175.112ZM121.719 172.408C121.639 171.16 120.391 170.968 119.255 171.224L119.271 172.408C120.103 172.36 120.103 172.712 120.103 173.4V179H121.831V174.536C121.831 173.288 122.759 172.616 123.799 172.616C124.359 172.616 124.871 172.776 125.335 173.08L125.767 171.576C125.271 171.208 124.631 171.016 123.991 171.032C123.047 171.032 122.023 171.512 121.719 172.408ZM130.702 171.112C128.606 171.112 126.75 172.408 126.702 174.984C126.622 177.592 128.494 179.224 131.038 179.176C132.014 179.176 133.054 178.92 133.95 178.52L133.726 177.224C132.814 177.624 131.886 177.752 130.926 177.704C129.518 177.704 128.414 176.872 128.414 175.464H134.11C134.622 172.904 133.406 171.112 130.702 171.112ZM130.686 172.456C131.79 172.456 132.75 173.064 132.702 174.232H128.446C128.686 173.016 129.534 172.456 130.686 172.456Z" fill="#2C2C2C"/>
<path d="M140.106 170.712L139.854 169.984L138.426 170.544L138.482 169.018H137.67L137.726 170.558L136.228 170.026L135.99 170.768L137.516 171.216L136.466 172.49L137.124 172.98L138.076 171.664L139.042 172.98L139.714 172.49L138.636 171.202L140.106 170.712ZM146.156 170.712L145.904 169.984L144.476 170.544L144.532 169.018H143.72L143.776 170.558L142.278 170.026L142.04 170.768L143.566 171.216L142.516 172.49L143.174 172.98L144.126 171.664L145.092 172.98L145.764 172.49L144.686 171.202L146.156 170.712Z" fill="#707070"/>
<path d="M300.442 143.016C300.442 138.472 305.466 136.808 305.466 132.776C305.466 128.328 302.138 126.088 298.298 126.184C294.49 126.28 291.322 128.424 291.322 132.968H295.258C295.418 131.304 296.858 130.472 298.266 130.472C300.666 130.472 301.306 132.584 300.538 134.28C299.258 137.128 296.218 137.992 296.218 143.016H300.442ZM298.394 149.448C299.898 149.448 300.986 148.456 300.986 147.016C300.986 145.512 299.898 144.552 298.394 144.552C296.89 144.552 295.738 145.512 295.738 147.016C295.738 148.456 296.89 149.448 298.394 149.448Z" fill="#707070"/>
<path d="M234.199 175.816C234.247 178.168 236.535 179.256 238.727 179.208C240.823 179.208 243.143 178.28 243.143 175.816C243.143 173.24 241.063 172.792 238.791 172.536C237.495 172.36 236.231 172.2 236.231 170.936C236.231 169.672 237.559 169.256 238.583 169.256C239.687 169.256 240.951 169.64 241.031 170.84H242.791C242.743 168.552 240.727 167.592 238.599 167.592C236.423 167.592 234.391 168.68 234.391 170.984C234.391 173.224 236.423 173.88 238.471 174.056C239.767 174.184 241.287 174.328 241.287 175.8C241.287 177.192 239.879 177.544 238.695 177.544C237.479 177.544 236.103 177.08 236.023 175.816H234.199ZM245.056 168.904C245.056 169.608 245.6 169.96 246.128 169.944C246.64 169.928 247.152 169.592 247.152 168.904C247.152 168.232 246.64 167.88 246.112 167.88C245.584 167.88 245.056 168.216 245.056 168.904ZM246.976 171.368H245.232V179H246.976V171.368ZM261.791 179V174.488C261.839 172.632 261.295 171.128 259.183 171.128C257.999 171.128 256.799 171.56 256.367 172.584C256.063 171.64 255.375 171.128 254.031 171.128C252.975 171.128 251.839 171.608 251.407 172.552C251.455 170.936 250.015 171.016 248.991 171.272L249.007 172.344C249.775 172.296 249.823 172.584 249.823 173.48V179H251.567V174.552C251.567 173.336 252.351 172.568 253.439 172.552C254.527 172.536 255.023 173.336 255.023 174.536V179H256.735V174.536C256.751 173.32 257.471 172.552 258.543 172.536C259.567 172.52 260.047 173.336 260.031 174.488V179H261.791ZM269.574 171.288V175.704C269.574 176.936 268.726 177.736 267.622 177.736C266.598 177.736 265.942 176.984 265.958 175.752V171.288H264.198V175.752C264.198 177.64 264.95 179.128 267.078 179.128C268.166 179.128 269.222 178.792 269.75 177.752C269.75 179.416 271.158 179.208 272.15 179.032L272.134 177.896C271.398 177.976 271.318 177.72 271.318 176.792V171.288H269.574ZM274.08 167.288V176.248C274.08 178.824 275.168 179.432 277.536 179.048L277.472 177.704C276.144 177.912 275.808 177.512 275.808 176.232V167.288H274.08ZM284.098 177.704C284.146 179.224 285.09 179.224 286.306 179.016L286.274 178.024C285.442 178.104 285.474 177.64 285.474 176.92V173.88C285.474 171.752 283.81 171.096 281.938 171.096C280.914 171.096 279.874 171.304 279.09 171.704L279.346 172.952C280.306 172.472 283.778 171.8 283.778 173.832V174.6C283.09 174.216 282.242 174.024 281.49 174.024C279.794 174.024 278.45 174.904 278.498 176.744C278.498 178.248 279.858 179.144 281.266 179.144C282.354 179.144 283.586 178.728 284.098 177.704ZM283.778 176.36C283.602 177.336 282.53 177.768 281.618 177.768C280.914 177.768 280.21 177.416 280.21 176.648C280.21 175.704 280.93 175.208 281.778 175.192C282.466 175.176 283.202 175.384 283.778 175.72V176.36ZM290.515 168.92H288.979L288.803 171.304H287.235V172.44L288.803 172.552V176.056C288.803 179.08 290.867 179.688 293.507 178.872L293.331 177.56C291.747 178.12 290.515 177.992 290.515 176.024V172.552H293.187V171.304H290.515V168.92ZM298.781 171.112C296.685 171.112 294.829 172.408 294.781 174.984C294.701 177.592 296.573 179.224 299.117 179.176C300.093 179.176 301.133 178.92 302.029 178.52L301.805 177.224C300.893 177.624 299.965 177.752 299.005 177.704C297.597 177.704 296.493 176.872 296.493 175.464H302.189C302.701 172.904 301.485 171.112 298.781 171.112ZM298.765 172.456C299.869 172.456 300.829 173.064 300.781 174.232H296.525C296.765 173.016 297.613 172.456 298.765 172.456ZM310.025 177.816C310.025 179.112 311.082 179.224 312.281 179.016L312.25 177.816C311.37 177.816 311.45 177.48 311.45 176.6V167.288H309.706V171.768C309.002 171.352 308.249 171.176 307.562 171.176C305.577 171.176 303.913 172.744 303.913 175.128C303.913 177.288 305.161 179.208 307.465 179.16C308.602 179.16 309.514 178.728 310.025 177.592V177.816ZM309.738 175.464C309.738 176.632 308.938 177.608 307.737 177.608C306.313 177.608 305.641 176.456 305.641 175.128C305.641 173.56 306.633 172.712 307.833 172.696C308.441 172.68 309.114 172.872 309.738 173.304V175.464ZM318.258 175.816C318.306 178.168 320.594 179.256 322.786 179.208C324.882 179.208 327.202 178.28 327.202 175.816C327.202 173.24 325.122 172.792 322.85 172.536C321.554 172.36 320.29 172.2 320.29 170.936C320.29 169.672 321.618 169.256 322.642 169.256C323.746 169.256 325.01 169.64 325.09 170.84H326.85C326.802 168.552 324.786 167.592 322.658 167.592C320.482 167.592 318.45 168.68 318.45 170.984C318.45 173.224 320.482 173.88 322.53 174.056C323.826 174.184 325.346 174.328 325.346 175.8C325.346 177.192 323.938 177.544 322.754 177.544C321.538 177.544 320.162 177.08 320.082 175.816H318.258ZM336.665 173.848C336.249 171.96 334.601 171.048 332.921 171.064C330.921 171.08 328.873 172.456 328.873 175.112C328.873 177.784 330.921 179.128 332.937 179.128C334.633 179.128 336.313 178.168 336.713 176.216H335.049C334.697 177.16 333.833 177.624 332.969 177.624C331.801 177.624 330.601 176.776 330.601 175.112C330.601 173.48 331.817 172.616 333.001 172.616C333.897 172.616 334.713 173.016 335.049 173.848H336.665ZM346.384 175.112C346.384 172.408 344.304 171.064 342.24 171.096C340.224 171.128 338.24 172.456 338.24 175.112C338.24 177.8 340.272 179.144 342.304 179.144C344.336 179.144 346.384 177.8 346.384 175.112ZM339.968 175.112C339.968 173.48 341.088 172.664 342.24 172.632C343.424 172.6 344.64 173.432 344.64 175.112C344.64 176.76 343.488 177.592 342.336 177.608C341.152 177.624 339.968 176.792 339.968 175.112ZM350.382 172.408C350.302 171.16 349.054 170.968 347.918 171.224L347.934 172.408C348.766 172.36 348.766 172.712 348.766 173.4V179H350.494V174.536C350.494 173.288 351.422 172.616 352.462 172.616C353.022 172.616 353.534 172.776 353.998 173.08L354.43 171.576C353.934 171.208 353.294 171.016 352.654 171.032C351.71 171.032 350.686 171.512 350.382 172.408ZM359.365 171.112C357.269 171.112 355.413 172.408 355.365 174.984C355.285 177.592 357.157 179.224 359.701 179.176C360.677 179.176 361.717 178.92 362.613 178.52L362.389 177.224C361.477 177.624 360.549 177.752 359.589 177.704C358.181 177.704 357.077 176.872 357.077 175.464H362.773C363.285 172.904 362.069 171.112 359.365 171.112ZM359.349 172.456C360.453 172.456 361.413 173.064 361.365 174.232H357.109C357.349 173.016 358.197 172.456 359.349 172.456Z" fill="#2C2C2C"/>
<path d="M0.806625 105.848C0.934625 107.96 2.50263 109.192 4.55063 109.192C7.01463 109.192 8.43863 107.512 8.43863 105.432C8.43863 103.784 7.36663 102.216 5.51063 102.136L8.34263 98.104V97.816H1.25463V99.32H5.76663L3.23863 103.08V103.4C4.77463 103.016 6.67863 103.576 6.67863 105.448C6.67863 106.776 5.81463 107.576 4.51863 107.576C3.36663 107.576 2.56663 106.984 2.45463 105.848H0.806625ZM14.8734 97.624C12.5534 97.624 10.6974 99.08 10.6974 101.48V105.352C10.6974 107.768 12.5534 109.208 14.8734 109.208C17.1614 109.208 19.0174 107.768 19.0174 105.352V101.48C19.0174 99.08 17.1614 97.624 14.8734 97.624ZM14.8734 107.56C13.7214 107.56 12.8094 107 12.5694 105.928C12.5054 105.608 12.4574 105.256 12.4574 104.872V101.976C12.4574 101.592 12.5054 101.24 12.5694 100.92C12.8094 99.832 13.7214 99.256 14.8734 99.256C16.0254 99.256 16.9214 99.832 17.1614 100.92C17.2254 101.24 17.2734 101.592 17.2734 101.976V104.872C17.2734 105.256 17.2254 105.608 17.1614 105.928C16.9214 107 16.0254 107.56 14.8734 107.56ZM25.6934 97.624C23.3734 97.624 21.5174 99.08 21.5174 101.48V105.352C21.5174 107.768 23.3734 109.208 25.6934 109.208C27.9814 109.208 29.8374 107.768 29.8374 105.352V101.48C29.8374 99.08 27.9814 97.624 25.6934 97.624ZM25.6934 107.56C24.5414 107.56 23.6294 107 23.3894 105.928C23.3254 105.608 23.2774 105.256 23.2774 104.872V101.976C23.2774 101.592 23.3254 101.24 23.3894 100.92C23.6294 99.832 24.5414 99.256 25.6934 99.256C26.8454 99.256 27.7414 99.832 27.9814 100.92C28.0454 101.24 28.0934 101.592 28.0934 101.976V104.872C28.0934 105.256 28.0454 105.608 27.9814 105.928C27.7414 107 26.8454 107.56 25.6934 107.56Z" fill="#ACACAC"/>
<path d="M150.158 109L153.534 103.64C154.03 102.888 154.286 102.168 154.286 101.272C154.286 98.776 152.446 97.544 150.142 97.544C147.822 97.544 145.982 98.776 145.982 101.272C145.982 103.592 147.646 104.92 149.886 104.872C150.254 104.872 150.638 104.776 150.942 104.6L148.126 109H150.158ZM150.142 99.128C151.486 99.128 152.446 99.88 152.446 101.272C152.446 102.664 151.486 103.432 150.142 103.432C148.798 103.432 147.822 102.664 147.822 101.272C147.822 99.88 148.782 99.128 150.142 99.128ZM160.522 97.624C158.202 97.624 156.346 99.08 156.346 101.48V105.352C156.346 107.768 158.202 109.208 160.522 109.208C162.81 109.208 164.666 107.768 164.666 105.352V101.48C164.666 99.08 162.81 97.624 160.522 97.624ZM160.522 107.56C159.37 107.56 158.458 107 158.218 105.928C158.154 105.608 158.106 105.256 158.106 104.872V101.976C158.106 101.592 158.154 101.24 158.218 100.92C158.458 99.832 159.37 99.256 160.522 99.256C161.674 99.256 162.57 99.832 162.81 100.92C162.874 101.24 162.922 101.592 162.922 101.976V104.872C162.922 105.256 162.874 105.608 162.81 105.928C162.57 107 161.674 107.56 160.522 107.56ZM171.342 97.624C169.022 97.624 167.166 99.08 167.166 101.48V105.352C167.166 107.768 169.022 109.208 171.342 109.208C173.63 109.208 175.486 107.768 175.486 105.352V101.48C175.486 99.08 173.63 97.624 171.342 97.624ZM171.342 107.56C170.19 107.56 169.278 107 169.038 105.928C168.974 105.608 168.926 105.256 168.926 104.872V101.976C168.926 101.592 168.974 101.24 169.038 100.92C169.278 99.832 170.19 99.256 171.342 99.256C172.494 99.256 173.39 99.832 173.63 100.92C173.694 101.24 173.742 101.592 173.742 101.976V104.872C173.742 105.256 173.694 105.608 173.63 105.928C173.39 107 172.494 107.56 171.342 107.56Z" fill="#ACACAC"/>
<path d="M177 88C177 64.6609 167.729 42.2778 151.225 25.7746C134.722 9.27141 112.339 1.76205e-06 89 0C65.6609 -1.76205e-06 43.2778 9.2714 26.7746 25.7746C10.2714 42.2778 1 64.6609 1 88H14.2C14.2 68.1618 22.0807 49.1361 36.1084 35.1084C50.1361 21.0807 69.1618 13.2 89 13.2C108.838 13.2 127.864 21.0807 141.892 35.1084C155.919 49.1361 163.8 68.1618 163.8 88H177Z" fill="#D74025"/>
<path d="M177 88C177 76.4437 174.724 65.0005 170.301 54.3239C165.879 43.6472 159.397 33.9462 151.225 25.7746C143.054 17.603 133.353 11.121 122.676 6.6986C111.999 2.27619 100.556 -5.05143e-07 89 0V13.2C98.8229 13.2 108.55 15.1348 117.625 18.8938C126.7 22.6529 134.946 28.1626 141.892 35.1084C148.837 42.0542 154.347 50.3001 158.106 59.3753C161.865 68.4504 163.8 78.1771 163.8 88H177Z" fill="#F16E00"/>
<path d="M176.999 88C176.999 70.679 171.887 53.7432 162.305 39.3144C152.722 24.8857 139.094 13.6058 123.129 6.88806L118.01 19.0549C131.58 24.765 143.164 34.3529 151.309 46.6173C159.454 58.8817 163.799 73.2771 163.799 88H176.999Z" fill="#FCD800"/>
<path d="M177.001 88C177.001 65.7601 168.58 44.345 153.432 28.0615L143.767 37.0523C156.643 50.8932 163.801 69.0961 163.801 88H177.001Z" fill="#A9D161"/>
<path d="M177.002 88.0001C177.002 76.9565 174.923 66.0116 170.874 55.7371L158.593 60.5765C162.035 69.3099 163.802 78.613 163.802 88.0001H177.002Z" fill="#009900"/>
<path d="M105.247 88.0001C105.247 83.6913 103.535 79.559 100.488 76.5123C97.4414 73.4656 93.3092 71.7539 89.0004 71.7539C84.6917 71.7539 80.5594 73.4655 77.5127 76.5123C74.4659 79.559 72.7543 83.6913 72.7543 88.0001L89.0004 88.0001H105.247Z" fill="#EDEDED"/>
<path d="M118.363 34.6973L87.734 75.6613C86.4085 77.4342 86.8292 79.9545 88.6586 81.2007C90.4881 82.4469 92.9875 81.9157 94.1519 80.0331L121.059 36.5336C121.518 35.7906 121.311 34.8175 120.589 34.3256C119.867 33.8338 118.886 33.9976 118.363 34.6973Z" fill="#2C2C2C"/>
<path d="M205.807 105.848C205.935 107.96 207.503 109.192 209.551 109.192C212.015 109.192 213.439 107.512 213.439 105.432C213.439 103.784 212.367 102.216 210.511 102.136L213.343 98.104V97.816H206.255V99.32H210.767L208.239 103.08V103.4C209.775 103.016 211.679 103.576 211.679 105.448C211.679 106.776 210.815 107.576 209.519 107.576C208.367 107.576 207.567 106.984 207.455 105.848H205.807ZM219.873 97.624C217.553 97.624 215.697 99.08 215.697 101.48V105.352C215.697 107.768 217.553 109.208 219.873 109.208C222.161 109.208 224.017 107.768 224.017 105.352V101.48C224.017 99.08 222.161 97.624 219.873 97.624ZM219.873 107.56C218.721 107.56 217.809 107 217.569 105.928C217.505 105.608 217.457 105.256 217.457 104.872V101.976C217.457 101.592 217.505 101.24 217.569 100.92C217.809 99.832 218.721 99.256 219.873 99.256C221.025 99.256 221.921 99.832 222.161 100.92C222.225 101.24 222.273 101.592 222.273 101.976V104.872C222.273 105.256 222.225 105.608 222.161 105.928C221.921 107 221.025 107.56 219.873 107.56ZM230.693 97.624C228.373 97.624 226.517 99.08 226.517 101.48V105.352C226.517 107.768 228.373 109.208 230.693 109.208C232.981 109.208 234.837 107.768 234.837 105.352V101.48C234.837 99.08 232.981 97.624 230.693 97.624ZM230.693 107.56C229.541 107.56 228.629 107 228.389 105.928C228.325 105.608 228.277 105.256 228.277 104.872V101.976C228.277 101.592 228.325 101.24 228.389 100.92C228.629 99.832 229.541 99.256 230.693 99.256C231.845 99.256 232.741 99.832 232.981 100.92C233.045 101.24 233.093 101.592 233.093 101.976V104.872C233.093 105.256 233.045 105.608 232.981 105.928C232.741 107 231.845 107.56 230.693 107.56Z" fill="#ACACAC"/>
<path d="M358.158 109L361.534 103.64C362.03 102.888 362.286 102.168 362.286 101.272C362.286 98.776 360.446 97.544 358.142 97.544C355.822 97.544 353.982 98.776 353.982 101.272C353.982 103.592 355.646 104.92 357.886 104.872C358.254 104.872 358.638 104.776 358.942 104.6L356.126 109H358.158ZM358.142 99.128C359.486 99.128 360.446 99.88 360.446 101.272C360.446 102.664 359.486 103.432 358.142 103.432C356.798 103.432 355.822 102.664 355.822 101.272C355.822 99.88 356.782 99.128 358.142 99.128ZM368.522 97.624C366.202 97.624 364.346 99.08 364.346 101.48V105.352C364.346 107.768 366.202 109.208 368.522 109.208C370.81 109.208 372.666 107.768 372.666 105.352V101.48C372.666 99.08 370.81 97.624 368.522 97.624ZM368.522 107.56C367.37 107.56 366.458 107 366.218 105.928C366.154 105.608 366.106 105.256 366.106 104.872V101.976C366.106 101.592 366.154 101.24 366.218 100.92C366.458 99.832 367.37 99.256 368.522 99.256C369.674 99.256 370.57 99.832 370.81 100.92C370.874 101.24 370.922 101.592 370.922 101.976V104.872C370.922 105.256 370.874 105.608 370.81 105.928C370.57 107 369.674 107.56 368.522 107.56ZM379.342 97.624C377.022 97.624 375.166 99.08 375.166 101.48V105.352C375.166 107.768 377.022 109.208 379.342 109.208C381.63 109.208 383.486 107.768 383.486 105.352V101.48C383.486 99.08 381.63 97.624 379.342 97.624ZM379.342 107.56C378.19 107.56 377.278 107 377.038 105.928C376.974 105.608 376.926 105.256 376.926 104.872V101.976C376.926 101.592 376.974 101.24 377.038 100.92C377.278 99.832 378.19 99.256 379.342 99.256C380.494 99.256 381.39 99.832 381.63 100.92C381.694 101.24 381.742 101.592 381.742 101.976V104.872C381.742 105.256 381.694 105.608 381.63 105.928C381.39 107 380.494 107.56 379.342 107.56Z" fill="#ACACAC"/>
<path d="M383 88C383 64.6609 373.729 42.2778 357.225 25.7746C340.722 9.27141 318.339 1.76205e-06 295 0C271.661 -1.76205e-06 249.278 9.2714 232.775 25.7746C216.271 42.2778 207 64.6609 207 88H220.2C220.2 68.1618 228.081 49.1361 242.108 35.1084C256.136 21.0807 275.162 13.2 295 13.2C314.838 13.2 333.864 21.0807 347.892 35.1084C361.919 49.1361 369.8 68.1618 369.8 88H383Z" fill="#D74025"/>
<path d="M383 88C383 76.4437 380.724 65.0005 376.301 54.3239C371.879 43.6472 365.397 33.9462 357.225 25.7746C349.054 17.603 339.353 11.121 328.676 6.6986C317.999 2.27619 306.556 -5.05143e-07 295 0V13.2C304.823 13.2 314.549 15.1348 323.624 18.8938C332.7 22.6529 340.946 28.1626 347.891 35.1084C354.837 42.0542 360.347 50.3001 364.106 59.3753C367.865 68.4504 369.8 78.1771 369.8 88H383Z" fill="#F16E00"/>
<path d="M382.999 88C382.999 70.679 377.887 53.7432 368.304 39.3144C358.722 24.8857 345.094 13.6058 329.129 6.88806L324.009 19.0549C337.58 24.765 349.163 34.3529 357.309 46.6173C365.454 58.8817 369.799 73.2771 369.799 88H382.999Z" fill="#FCD800"/>
<path d="M383 88C383 65.7601 374.58 44.345 359.432 28.0615L349.767 37.0523C362.643 50.8932 369.8 69.0961 369.8 88H383Z" fill="#A9D161"/>
<path d="M383.001 88.0001C383.001 76.9565 380.923 66.0116 376.874 55.7371L364.593 60.5765C368.034 69.3099 369.801 78.613 369.801 88.0001H383.001Z" fill="#009900"/>
<path d="M311.246 88.0001C311.246 83.6913 309.534 79.559 306.488 76.5123C303.441 73.4656 299.309 71.7539 295 71.7539C290.691 71.7539 286.559 73.4655 283.512 76.5123C280.465 79.559 278.754 83.6913 278.754 88.0001L295 88.0001H311.246Z" fill="#EDEDED"/>
<path d="M324.363 35.8176L293.734 76.7817C292.408 78.5545 292.829 81.0749 294.658 82.3211C296.488 83.5673 298.987 83.0361 300.152 81.1535L327.058 37.654C327.518 36.911 327.311 35.9378 326.589 35.446C325.867 34.9541 324.886 35.1179 324.363 35.8176Z" fill="#2C2C2C"/>
</svg>
