<svg width="305" height="158" viewBox="0 0 305 158" fill="none" xmlns="http://www.w3.org/2000/svg">
<path d="M60.7752 98.849H48.8712V101.969H55.9512L49.9992 115.649H53.6232L60.7752 99.353V98.849ZM72.0585 112.313H73.6185V109.409H72.0585V98.849H68.3385L60.9705 110.753V112.313H68.8185V115.649H72.0585V112.313ZM69.2025 102.857L69.0345 106.337V109.529H65.0265L69.1785 102.857H69.2025ZM83.1366 98.561C79.6566 98.561 76.8486 100.721 76.8486 104.345V110.201C76.8486 113.849 79.6566 115.985 83.1366 115.985C86.5686 115.985 89.3766 113.849 89.3766 110.201V104.345C89.3766 100.721 86.5686 98.561 83.1366 98.561ZM83.1366 112.841C81.6006 112.841 80.4726 112.049 80.3046 110.585C80.2566 110.177 80.2326 109.745 80.2326 109.241V105.329C80.2326 104.849 80.2566 104.393 80.3046 103.961C80.4726 102.449 81.6006 101.705 83.1366 101.705C84.6006 101.705 85.7766 102.449 85.9446 103.961C85.9926 104.393 86.0166 104.849 86.0166 105.329V109.241C86.0166 109.745 85.9926 110.177 85.9446 110.585C85.7766 112.049 84.6006 112.841 83.1366 112.841Z" fill="#707070"/>
<path d="M5.87881 144.065C5.87881 147.665 8.51881 149.761 11.5588 149.761C13.8308 149.761 16.1348 148.561 16.6948 145.825H14.8868C14.3908 147.313 13.0948 148.065 11.5588 148.065C9.27081 148.065 7.75081 146.289 7.75081 144.065C7.75081 141.681 9.27081 140.017 11.5588 140.017C13.0308 140.033 14.2788 140.673 14.8388 142.065H16.6308C16.0388 139.537 13.7668 138.321 11.5748 138.321C8.51881 138.321 5.87881 140.449 5.87881 144.065ZM24.0351 141.937V146.353C24.0351 147.585 23.1871 148.385 22.0831 148.385C21.0591 148.385 20.4031 147.633 20.4191 146.401V141.937H18.6591V146.401C18.6591 148.289 19.4111 149.777 21.5391 149.777C22.6271 149.777 23.6831 149.441 24.2111 148.401C24.2111 150.065 25.6191 149.857 26.6111 149.681L26.5951 148.545C25.8591 148.625 25.7791 148.369 25.7791 147.441V141.937H24.0351ZM30.5099 143.057C30.4299 141.809 29.1819 141.617 28.0459 141.873L28.0619 143.057C28.8939 143.009 28.8939 143.361 28.8939 144.049V149.649H30.6219V145.185C30.6219 143.937 31.5499 143.265 32.5899 143.265C33.1499 143.265 33.6619 143.425 34.1259 143.729L34.5579 142.225C34.0619 141.857 33.4219 141.665 32.7819 141.681C31.8379 141.681 30.8139 142.161 30.5099 143.057ZM38.0643 143.057C37.9843 141.809 36.7363 141.617 35.6003 141.873L35.6163 143.057C36.4483 143.009 36.4483 143.361 36.4483 144.049V149.649H38.1763V145.185C38.1763 143.937 39.1043 143.265 40.1443 143.265C40.7043 143.265 41.2163 143.425 41.6803 143.729L42.1123 142.225C41.6163 141.857 40.9763 141.665 40.3363 141.681C39.3923 141.681 38.3683 142.161 38.0643 143.057ZM47.0476 141.761C44.9516 141.761 43.0956 143.057 43.0476 145.633C42.9676 148.241 44.8396 149.873 47.3836 149.825C48.3596 149.825 49.3996 149.569 50.2956 149.169L50.0716 147.873C49.1596 148.273 48.2316 148.401 47.2716 148.353C45.8636 148.353 44.7596 147.521 44.7596 146.113H50.4556C50.9676 143.553 49.7516 141.761 47.0476 141.761ZM47.0316 143.105C48.1356 143.105 49.0956 143.713 49.0476 144.881H44.7916C45.0316 143.665 45.8796 143.105 47.0316 143.105ZM60.1961 149.649V145.121C60.1961 143.217 59.2361 141.777 57.1401 141.777C56.1321 141.777 54.9481 142.145 54.5161 143.121C54.5161 141.649 53.2201 141.713 52.1001 141.921V143.057C52.8841 143.009 52.9161 143.265 52.9161 144.177V149.649H54.6761V145.265C54.6761 144.017 55.5401 143.169 56.6281 143.169C57.6681 143.185 58.4521 143.921 58.4361 145.121V149.649H60.1961ZM65.0694 139.569H63.5334L63.3574 141.953H61.7894V143.089L63.3574 143.201V146.705C63.3574 149.729 65.4214 150.337 68.0614 149.521L67.8854 148.209C66.3014 148.769 65.0694 148.641 65.0694 146.673V143.201H67.7414V141.953H65.0694V139.569ZM73.7353 146.465C73.7833 148.817 76.0713 149.905 78.2633 149.857C80.3593 149.857 82.6793 148.929 82.6793 146.465C82.6793 143.889 80.5993 143.441 78.3273 143.185C77.0313 143.009 75.7673 142.849 75.7673 141.585C75.7673 140.321 77.0953 139.905 78.1193 139.905C79.2233 139.905 80.4873 140.289 80.5673 141.489H82.3273C82.2793 139.201 80.2633 138.241 78.1353 138.241C75.9593 138.241 73.9273 139.329 73.9273 141.633C73.9273 143.873 75.9593 144.529 78.0073 144.705C79.3033 144.833 80.8233 144.977 80.8233 146.449C80.8233 147.841 79.4153 148.193 78.2313 148.193C77.0153 148.193 75.6393 147.729 75.5593 146.465H73.7353ZM92.1427 144.497C91.7267 142.609 90.0787 141.697 88.3987 141.713C86.3987 141.729 84.3507 143.105 84.3507 145.761C84.3507 148.433 86.3987 149.777 88.4147 149.777C90.1107 149.777 91.7907 148.817 92.1907 146.865H90.5267C90.1747 147.809 89.3107 148.273 88.4467 148.273C87.2787 148.273 86.0787 147.425 86.0787 145.761C86.0787 144.129 87.2947 143.265 88.4787 143.265C89.3747 143.265 90.1907 143.665 90.5267 144.497H92.1427ZM101.862 145.761C101.862 143.057 99.7816 141.713 97.7176 141.745C95.7016 141.777 93.7176 143.105 93.7176 145.761C93.7176 148.449 95.7496 149.793 97.7816 149.793C99.8136 149.793 101.862 148.449 101.862 145.761ZM95.4456 145.761C95.4456 144.129 96.5656 143.313 97.7176 143.281C98.9016 143.249 100.118 144.081 100.118 145.761C100.118 147.409 98.9656 148.241 97.8136 148.257C96.6296 148.273 95.4456 147.441 95.4456 145.761ZM105.859 143.057C105.779 141.809 104.531 141.617 103.395 141.873L103.411 143.057C104.243 143.009 104.243 143.361 104.243 144.049V149.649H105.971V145.185C105.971 143.937 106.899 143.265 107.939 143.265C108.499 143.265 109.011 143.425 109.475 143.729L109.907 142.225C109.411 141.857 108.771 141.665 108.131 141.681C107.187 141.681 106.163 142.161 105.859 143.057ZM114.842 141.761C112.746 141.761 110.89 143.057 110.842 145.633C110.762 148.241 112.634 149.873 115.178 149.825C116.154 149.825 117.194 149.569 118.09 149.169L117.866 147.873C116.954 148.273 116.026 148.401 115.066 148.353C113.658 148.353 112.554 147.521 112.554 146.113H118.25C118.762 143.553 117.546 141.761 114.842 141.761ZM114.826 143.105C115.93 143.105 116.89 143.713 116.842 144.881H112.586C112.826 143.665 113.674 143.105 114.826 143.105ZM124.987 140.497L124.603 139.313L123.019 139.953L123.131 138.289H121.835L121.931 139.953L120.299 139.345L119.947 140.513L121.627 140.993L120.459 142.337L121.483 143.121L122.491 141.681L123.499 143.105L124.539 142.353L123.371 140.961L124.987 140.497ZM132.01 140.497L131.626 139.313L130.042 139.953L130.154 138.289H128.858L128.954 139.953L127.322 139.345L126.97 140.513L128.65 140.993L127.482 142.337L128.506 143.121L129.514 141.681L130.522 143.105L131.562 142.353L130.394 140.961L132.01 140.497Z" fill="#2C2C2C"/>
<path d="M236.957 111.161C236.957 107.753 240.725 106.505 240.725 103.481C240.725 100.145 238.229 98.465 235.349 98.537C232.493 98.609 230.117 100.217 230.117 103.625H233.069C233.189 102.377 234.269 101.753 235.325 101.753C237.125 101.753 237.605 103.337 237.029 104.609C236.069 106.745 233.789 107.393 233.789 111.161H236.957ZM235.421 115.985C236.549 115.985 237.365 115.241 237.365 114.161C237.365 113.033 236.549 112.313 235.421 112.313C234.293 112.313 233.429 113.033 233.429 114.161C233.429 115.241 234.293 115.985 235.421 115.985Z" fill="#707070"/>
<path d="M171.199 146.465C171.247 148.817 173.535 149.905 175.727 149.857C177.823 149.857 180.143 148.929 180.143 146.465C180.143 143.889 178.063 143.441 175.791 143.185C174.495 143.009 173.231 142.849 173.231 141.585C173.231 140.321 174.559 139.905 175.583 139.905C176.687 139.905 177.951 140.289 178.031 141.489H179.791C179.743 139.201 177.727 138.241 175.599 138.241C173.423 138.241 171.391 139.329 171.391 141.633C171.391 143.873 173.423 144.529 175.471 144.705C176.767 144.833 178.287 144.977 178.287 146.449C178.287 147.841 176.879 148.193 175.695 148.193C174.479 148.193 173.103 147.729 173.023 146.465H171.199ZM182.056 139.553C182.056 140.257 182.6 140.609 183.128 140.593C183.64 140.577 184.152 140.241 184.152 139.553C184.152 138.881 183.64 138.529 183.112 138.529C182.584 138.529 182.056 138.865 182.056 139.553ZM183.976 142.017H182.232V149.649H183.976V142.017ZM198.791 149.649V145.137C198.839 143.281 198.295 141.777 196.183 141.777C194.999 141.777 193.799 142.209 193.367 143.233C193.063 142.289 192.375 141.777 191.031 141.777C189.975 141.777 188.839 142.257 188.407 143.201C188.455 141.585 187.015 141.665 185.991 141.921L186.007 142.993C186.775 142.945 186.823 143.233 186.823 144.129V149.649H188.567V145.201C188.567 143.985 189.351 143.217 190.439 143.201C191.527 143.185 192.023 143.985 192.023 145.185V149.649H193.735V145.185C193.751 143.969 194.471 143.201 195.543 143.185C196.567 143.169 197.047 143.985 197.031 145.137V149.649H198.791ZM206.574 141.937V146.353C206.574 147.585 205.726 148.385 204.622 148.385C203.598 148.385 202.942 147.633 202.958 146.401V141.937H201.198V146.401C201.198 148.289 201.95 149.777 204.078 149.777C205.166 149.777 206.222 149.441 206.75 148.401C206.75 150.065 208.158 149.857 209.15 149.681L209.134 148.545C208.398 148.625 208.318 148.369 208.318 147.441V141.937H206.574ZM211.08 137.937V146.897C211.08 149.473 212.168 150.081 214.536 149.697L214.472 148.353C213.144 148.561 212.808 148.161 212.808 146.881V137.937H211.08ZM221.098 148.353C221.146 149.873 222.09 149.873 223.306 149.665L223.274 148.673C222.442 148.753 222.474 148.289 222.474 147.569V144.529C222.474 142.401 220.81 141.745 218.938 141.745C217.914 141.745 216.874 141.953 216.09 142.353L216.346 143.601C217.306 143.121 220.778 142.449 220.778 144.481V145.249C220.09 144.865 219.242 144.673 218.49 144.673C216.794 144.673 215.45 145.553 215.498 147.393C215.498 148.897 216.858 149.793 218.266 149.793C219.354 149.793 220.586 149.377 221.098 148.353ZM220.778 147.009C220.602 147.985 219.53 148.417 218.618 148.417C217.914 148.417 217.21 148.065 217.21 147.297C217.21 146.353 217.93 145.857 218.778 145.841C219.466 145.825 220.202 146.033 220.778 146.369V147.009ZM227.515 139.569H225.979L225.803 141.953H224.235V143.089L225.803 143.201V146.705C225.803 149.729 227.867 150.337 230.507 149.521L230.331 148.209C228.747 148.769 227.515 148.641 227.515 146.673V143.201H230.187V141.953H227.515V139.569ZM235.781 141.761C233.685 141.761 231.829 143.057 231.781 145.633C231.701 148.241 233.573 149.873 236.117 149.825C237.093 149.825 238.133 149.569 239.029 149.169L238.805 147.873C237.893 148.273 236.965 148.401 236.005 148.353C234.597 148.353 233.493 147.521 233.493 146.113H239.189C239.701 143.553 238.485 141.761 235.781 141.761ZM235.765 143.105C236.869 143.105 237.829 143.713 237.781 144.881H233.525C233.765 143.665 234.613 143.105 235.765 143.105ZM247.025 148.465C247.025 149.761 248.082 149.873 249.281 149.665L249.25 148.465C248.37 148.465 248.45 148.129 248.45 147.249V137.937H246.706V142.417C246.002 142.001 245.249 141.825 244.562 141.825C242.577 141.825 240.913 143.393 240.913 145.777C240.913 147.937 242.161 149.857 244.465 149.809C245.602 149.809 246.514 149.377 247.025 148.241V148.465ZM246.738 146.113C246.738 147.281 245.938 148.257 244.737 148.257C243.313 148.257 242.641 147.105 242.641 145.777C242.641 144.209 243.633 143.361 244.833 143.345C245.441 143.329 246.114 143.521 246.738 143.953V146.113ZM255.258 146.465C255.306 148.817 257.594 149.905 259.786 149.857C261.882 149.857 264.202 148.929 264.202 146.465C264.202 143.889 262.122 143.441 259.85 143.185C258.554 143.009 257.29 142.849 257.29 141.585C257.29 140.321 258.618 139.905 259.642 139.905C260.746 139.905 262.01 140.289 262.09 141.489H263.85C263.802 139.201 261.786 138.241 259.658 138.241C257.482 138.241 255.45 139.329 255.45 141.633C255.45 143.873 257.482 144.529 259.53 144.705C260.826 144.833 262.346 144.977 262.346 146.449C262.346 147.841 260.938 148.193 259.754 148.193C258.538 148.193 257.162 147.729 257.082 146.465H255.258ZM273.665 144.497C273.249 142.609 271.601 141.697 269.921 141.713C267.921 141.729 265.873 143.105 265.873 145.761C265.873 148.433 267.921 149.777 269.937 149.777C271.633 149.777 273.313 148.817 273.713 146.865H272.049C271.697 147.809 270.833 148.273 269.969 148.273C268.801 148.273 267.601 147.425 267.601 145.761C267.601 144.129 268.817 143.265 270.001 143.265C270.897 143.265 271.713 143.665 272.049 144.497H273.665ZM283.384 145.761C283.384 143.057 281.304 141.713 279.24 141.745C277.224 141.777 275.24 143.105 275.24 145.761C275.24 148.449 277.272 149.793 279.304 149.793C281.336 149.793 283.384 148.449 283.384 145.761ZM276.968 145.761C276.968 144.129 278.088 143.313 279.24 143.281C280.424 143.249 281.64 144.081 281.64 145.761C281.64 147.409 280.488 148.241 279.336 148.257C278.152 148.273 276.968 147.441 276.968 145.761ZM287.382 143.057C287.302 141.809 286.054 141.617 284.918 141.873L284.934 143.057C285.766 143.009 285.766 143.361 285.766 144.049V149.649H287.494V145.185C287.494 143.937 288.422 143.265 289.462 143.265C290.022 143.265 290.534 143.425 290.998 143.729L291.43 142.225C290.934 141.857 290.294 141.665 289.654 141.681C288.71 141.681 287.686 142.161 287.382 143.057ZM296.365 141.761C294.269 141.761 292.413 143.057 292.365 145.633C292.285 148.241 294.157 149.873 296.701 149.825C297.677 149.825 298.717 149.569 299.613 149.169L299.389 147.873C298.477 148.273 297.549 148.401 296.589 148.353C295.181 148.353 294.077 147.521 294.077 146.113H299.773C300.285 143.553 299.069 141.761 296.365 141.761ZM296.349 143.105C297.453 143.105 298.413 143.713 298.365 144.881H294.109C294.349 143.665 295.197 143.105 296.349 143.105Z" fill="#2C2C2C"/>
<path d="M0.806625 86.497C0.934625 88.609 2.50263 89.841 4.55063 89.841C7.01463 89.841 8.43863 88.161 8.43863 86.081C8.43863 84.433 7.36663 82.865 5.51063 82.785L8.34263 78.753V78.465H1.25463V79.969H5.76663L3.23863 83.729V84.049C4.77463 83.665 6.67863 84.225 6.67863 86.097C6.67863 87.425 5.81463 88.225 4.51863 88.225C3.36663 88.225 2.56663 87.633 2.45463 86.497H0.806625ZM14.8734 78.273C12.5534 78.273 10.6974 79.729 10.6974 82.129V86.001C10.6974 88.417 12.5534 89.857 14.8734 89.857C17.1614 89.857 19.0174 88.417 19.0174 86.001V82.129C19.0174 79.729 17.1614 78.273 14.8734 78.273ZM14.8734 88.209C13.7214 88.209 12.8094 87.649 12.5694 86.577C12.5054 86.257 12.4574 85.905 12.4574 85.521V82.625C12.4574 82.241 12.5054 81.889 12.5694 81.569C12.8094 80.481 13.7214 79.905 14.8734 79.905C16.0254 79.905 16.9214 80.481 17.1614 81.569C17.2254 81.889 17.2734 82.241 17.2734 82.625V85.521C17.2734 85.905 17.2254 86.257 17.1614 86.577C16.9214 87.649 16.0254 88.209 14.8734 88.209ZM25.6934 78.273C23.3734 78.273 21.5174 79.729 21.5174 82.129V86.001C21.5174 88.417 23.3734 89.857 25.6934 89.857C27.9814 89.857 29.8374 88.417 29.8374 86.001V82.129C29.8374 79.729 27.9814 78.273 25.6934 78.273ZM25.6934 88.209C24.5414 88.209 23.6294 87.649 23.3894 86.577C23.3254 86.257 23.2774 85.905 23.2774 85.521V82.625C23.2774 82.241 23.3254 81.889 23.3894 81.569C23.6294 80.481 24.5414 79.905 25.6934 79.905C26.8454 79.905 27.7414 80.481 27.9814 81.569C28.0454 81.889 28.0934 82.241 28.0934 82.625V85.521C28.0934 85.905 28.0454 86.257 27.9814 86.577C27.7414 87.649 26.8454 88.209 25.6934 88.209Z" fill="#ACACAC"/>
<path d="M110.158 89.649L113.534 84.289C114.03 83.537 114.286 82.817 114.286 81.921C114.286 79.425 112.446 78.193 110.142 78.193C107.822 78.193 105.982 79.425 105.982 81.921C105.982 84.241 107.646 85.569 109.886 85.521C110.254 85.521 110.638 85.425 110.942 85.249L108.126 89.649H110.158ZM110.142 79.777C111.486 79.777 112.446 80.529 112.446 81.921C112.446 83.313 111.486 84.081 110.142 84.081C108.798 84.081 107.822 83.313 107.822 81.921C107.822 80.529 108.782 79.777 110.142 79.777ZM120.522 78.273C118.202 78.273 116.346 79.729 116.346 82.129V86.001C116.346 88.417 118.202 89.857 120.522 89.857C122.81 89.857 124.666 88.417 124.666 86.001V82.129C124.666 79.729 122.81 78.273 120.522 78.273ZM120.522 88.209C119.37 88.209 118.458 87.649 118.218 86.577C118.154 86.257 118.106 85.905 118.106 85.521V82.625C118.106 82.241 118.154 81.889 118.218 81.569C118.458 80.481 119.37 79.905 120.522 79.905C121.674 79.905 122.57 80.481 122.81 81.569C122.874 81.889 122.922 82.241 122.922 82.625V85.521C122.922 85.905 122.874 86.257 122.81 86.577C122.57 87.649 121.674 88.209 120.522 88.209ZM131.342 78.273C129.022 78.273 127.166 79.729 127.166 82.129V86.001C127.166 88.417 129.022 89.857 131.342 89.857C133.63 89.857 135.486 88.417 135.486 86.001V82.129C135.486 79.729 133.63 78.273 131.342 78.273ZM131.342 88.209C130.19 88.209 129.278 87.649 129.038 86.577C128.974 86.257 128.926 85.905 128.926 85.521V82.625C128.926 82.241 128.974 81.889 129.038 81.569C129.278 80.481 130.19 79.905 131.342 79.905C132.494 79.905 133.39 80.481 133.63 81.569C133.694 81.889 133.742 82.241 133.742 82.625V85.521C133.742 85.905 133.694 86.257 133.63 86.577C133.39 87.649 132.494 88.209 131.342 88.209Z" fill="#ACACAC"/>
<path d="M137.298 68.649C137.298 50.4421 130.065 32.981 117.191 20.1068C104.317 7.23264 86.8558 1.37458e-06 68.649 0C50.4421 -1.37458e-06 32.981 7.23264 20.1068 20.1068C7.23264 32.981 2.74916e-06 50.4421 0 68.649H10.2973C10.2973 53.1732 16.4451 38.3312 27.3881 27.3881C38.3312 16.4451 53.1732 10.2973 68.649 10.2973C84.1248 10.2973 98.9668 16.4451 109.91 27.3881C120.853 38.3312 127.001 53.1732 127.001 68.649H137.298Z" fill="#D74025"/>
<path d="M137.298 68.649C137.298 59.6339 135.522 50.707 132.072 42.3782C128.622 34.0493 123.566 26.4815 117.191 20.1068C110.816 13.7322 103.249 8.67552 94.9198 5.22559C86.5909 1.77566 77.664 -3.94063e-07 68.6489 0V10.2973C76.3118 10.2973 83.8996 11.8067 90.9791 14.7391C98.0587 17.6715 104.491 21.9697 109.91 27.3881C115.328 32.8066 119.626 39.2392 122.559 46.3188C125.491 53.3983 127.001 60.9861 127.001 68.649H137.298Z" fill="#F16E00"/>
<path d="M137.297 68.649C137.297 55.1368 133.31 41.9252 125.834 30.6693C118.359 19.4134 107.728 10.614 95.2733 5.37341L91.2795 14.8647C101.866 19.3192 110.902 26.7988 117.256 36.3663C123.611 45.9337 127 57.1637 127 68.649H137.297Z" fill="#FCD800"/>
<path d="M137.298 68.649C137.298 51.2996 130.729 34.5936 118.912 21.8909L111.373 28.9046C121.417 39.7019 127.001 53.902 127.001 68.649H137.298Z" fill="#A9D161"/>
<path d="M137.299 68.649C137.299 60.0339 135.677 51.4958 132.519 43.4806L122.938 47.2559C125.623 54.0688 127.002 61.3262 127.002 68.649H137.299Z" fill="#009900"/>
<path d="M81.3227 68.6491C81.3227 65.2878 79.9874 62.0642 77.6106 59.6874C75.2339 57.3107 72.0103 55.9754 68.649 55.9754C65.2877 55.9754 62.0641 57.3107 59.6874 59.6874C57.3106 62.0642 55.9753 65.2878 55.9753 68.6491L68.649 68.6491H81.3227Z" fill="#EDEDED"/>
<path d="M91.5548 27.0674L67.6612 59.0235C66.6272 60.4065 66.9554 62.3726 68.3825 63.3448C69.8097 64.317 71.7595 63.9026 72.6679 62.434L93.6578 28.4999C94.0163 27.9203 93.855 27.1612 93.2917 26.7775C92.7284 26.3938 91.9629 26.5216 91.5548 27.0674Z" fill="#2C2C2C"/>
<path d="M168.105 86.497C168.233 88.609 169.801 89.841 171.849 89.841C174.313 89.841 175.737 88.161 175.737 86.081C175.737 84.433 174.665 82.865 172.809 82.785L175.641 78.753V78.465H168.553V79.969H173.065L170.537 83.729V84.049C172.073 83.665 173.977 84.225 173.977 86.097C173.977 87.425 173.113 88.225 171.817 88.225C170.665 88.225 169.865 87.633 169.753 86.497H168.105ZM182.172 78.273C179.852 78.273 177.996 79.729 177.996 82.129V86.001C177.996 88.417 179.852 89.857 182.172 89.857C184.46 89.857 186.316 88.417 186.316 86.001V82.129C186.316 79.729 184.46 78.273 182.172 78.273ZM182.172 88.209C181.02 88.209 180.108 87.649 179.868 86.577C179.804 86.257 179.756 85.905 179.756 85.521V82.625C179.756 82.241 179.804 81.889 179.868 81.569C180.108 80.481 181.02 79.905 182.172 79.905C183.324 79.905 184.22 80.481 184.46 81.569C184.524 81.889 184.572 82.241 184.572 82.625V85.521C184.572 85.905 184.524 86.257 184.46 86.577C184.22 87.649 183.324 88.209 182.172 88.209ZM192.992 78.273C190.672 78.273 188.816 79.729 188.816 82.129V86.001C188.816 88.417 190.672 89.857 192.992 89.857C195.28 89.857 197.136 88.417 197.136 86.001V82.129C197.136 79.729 195.28 78.273 192.992 78.273ZM192.992 88.209C191.84 88.209 190.928 87.649 190.688 86.577C190.624 86.257 190.576 85.905 190.576 85.521V82.625C190.576 82.241 190.624 81.889 190.688 81.569C190.928 80.481 191.84 79.905 192.992 79.905C194.144 79.905 195.04 80.481 195.28 81.569C195.344 81.889 195.392 82.241 195.392 82.625V85.521C195.392 85.905 195.344 86.257 195.28 86.577C195.04 87.649 194.144 88.209 192.992 88.209Z" fill="#ACACAC"/>
<path d="M277.457 89.649L280.833 84.289C281.329 83.537 281.585 82.817 281.585 81.921C281.585 79.425 279.745 78.193 277.441 78.193C275.121 78.193 273.281 79.425 273.281 81.921C273.281 84.241 274.945 85.569 277.185 85.521C277.553 85.521 277.937 85.425 278.241 85.249L275.425 89.649H277.457ZM277.441 79.777C278.785 79.777 279.745 80.529 279.745 81.921C279.745 83.313 278.785 84.081 277.441 84.081C276.097 84.081 275.121 83.313 275.121 81.921C275.121 80.529 276.081 79.777 277.441 79.777ZM287.821 78.273C285.501 78.273 283.645 79.729 283.645 82.129V86.001C283.645 88.417 285.501 89.857 287.821 89.857C290.109 89.857 291.965 88.417 291.965 86.001V82.129C291.965 79.729 290.109 78.273 287.821 78.273ZM287.821 88.209C286.669 88.209 285.757 87.649 285.517 86.577C285.453 86.257 285.405 85.905 285.405 85.521V82.625C285.405 82.241 285.453 81.889 285.517 81.569C285.757 80.481 286.669 79.905 287.821 79.905C288.973 79.905 289.869 80.481 290.109 81.569C290.173 81.889 290.221 82.241 290.221 82.625V85.521C290.221 85.905 290.173 86.257 290.109 86.577C289.869 87.649 288.973 88.209 287.821 88.209ZM298.641 78.273C296.321 78.273 294.465 79.729 294.465 82.129V86.001C294.465 88.417 296.321 89.857 298.641 89.857C300.929 89.857 302.785 88.417 302.785 86.001V82.129C302.785 79.729 300.929 78.273 298.641 78.273ZM298.641 88.209C297.489 88.209 296.577 87.649 296.337 86.577C296.273 86.257 296.225 85.905 296.225 85.521V82.625C296.225 82.241 296.273 81.889 296.337 81.569C296.577 80.481 297.489 79.905 298.641 79.905C299.793 79.905 300.689 80.481 300.929 81.569C300.993 81.889 301.041 82.241 301.041 82.625V85.521C301.041 85.905 300.993 86.257 300.929 86.577C300.689 87.649 299.793 88.209 298.641 88.209Z" fill="#ACACAC"/>
<path d="M304.298 68.649C304.298 50.4421 297.065 32.981 284.191 20.1068C271.317 7.23264 253.856 1.37458e-06 235.649 0C217.442 -1.37458e-06 199.981 7.23264 187.107 20.1068C174.233 32.981 167 50.4421 167 68.649H177.297C177.297 53.1732 183.445 38.3312 194.388 27.3881C205.331 16.4451 220.173 10.2973 235.649 10.2973C251.125 10.2973 265.967 16.4451 276.91 27.3881C287.853 38.3312 294.001 53.1732 294.001 68.649H304.298Z" fill="#D74025"/>
<path d="M304.298 68.649C304.298 59.6339 302.522 50.707 299.072 42.3782C295.622 34.0493 290.566 26.4815 284.191 20.1068C277.816 13.7322 270.249 8.67552 261.92 5.22559C253.591 1.77566 244.664 -3.94063e-07 235.649 0V10.2973C243.312 10.2973 250.9 11.8067 257.979 14.7391C265.059 17.6715 271.491 21.9697 276.91 27.3881C282.328 32.8066 286.626 39.2392 289.559 46.3188C292.491 53.3983 294.001 60.9861 294.001 68.649H304.298Z" fill="#F16E00"/>
<path d="M304.296 68.649C304.296 55.1368 300.309 41.9252 292.833 30.6693C285.358 19.4134 274.727 10.614 262.272 5.37341L258.279 14.8647C268.865 19.3192 277.901 26.7988 284.255 36.3663C290.61 45.9337 293.999 57.1637 293.999 68.649H304.296Z" fill="#FCD800"/>
<path d="M304.298 68.649C304.298 51.2996 297.729 34.5936 285.912 21.8909L278.372 28.9046C288.417 39.7019 294 53.902 294 68.649H304.298Z" fill="#A9D161"/>
<path d="M304.299 68.649C304.299 60.0339 302.677 51.4958 299.519 43.4806L289.938 47.2559C292.623 54.0688 294.001 61.3262 294.001 68.649H304.299Z" fill="#009900"/>
<path d="M248.322 68.6491C248.322 65.2878 246.987 62.0642 244.61 59.6874C242.234 57.3107 239.01 55.9754 235.649 55.9754C232.287 55.9754 229.064 57.3107 226.687 59.6874C224.31 62.0642 222.975 65.2878 222.975 68.6491L235.649 68.6491H248.322Z" fill="#EDEDED"/>
<path d="M258.555 27.9414L234.661 59.8976C233.627 61.2806 233.955 63.2467 235.383 64.2188C236.81 65.191 238.759 64.7766 239.668 63.308L260.658 29.3739C261.016 28.7943 260.855 28.0352 260.292 27.6515C259.728 27.2678 258.963 27.3956 258.555 27.9414Z" fill="#2C2C2C"/>
</svg>
