<svg width="40" height="40" viewBox="0 0 40 40" fill="none" xmlns="http://www.w3.org/2000/svg">
<circle cx="20" cy="20" r="20" fill="#FCD800"/>
<path d="M21.3338 14.5759H12.8558C12.2528 14.5759 12.1932 14.6338 12.1932 15.2285V23.7794C12.1932 24.3459 12.2644 24.4155 12.8343 24.4155H27.9349C28.5247 24.4155 28.5975 24.3492 28.5975 23.7529C28.5975 21.404 28.6058 19.055 28.5975 16.7061C28.5975 16.3483 28.6986 16.2489 29.0431 16.2771C29.4123 16.2978 29.7822 16.2978 30.1514 16.2771C30.3452 16.2771 30.3982 16.3433 30.3982 16.5289C30.3982 19.0633 30.4098 21.5961 30.375 24.1289C30.3584 25.3034 29.4043 26.1631 28.2215 26.1648C26.0548 26.1648 23.8881 26.1764 21.7214 26.1548C21.3437 26.1548 21.2476 26.2691 21.2791 26.617C21.3031 26.9329 21.3031 27.2502 21.2791 27.5662C21.2609 27.8279 21.352 27.8975 21.6104 27.8975C22.6408 27.8826 23.6711 27.8975 24.7015 27.8842C25.0162 27.8842 25.1586 27.9422 25.1255 28.2884C25.0979 28.6191 25.0979 28.9516 25.1255 29.2823C25.1471 29.5738 25.0609 29.6616 24.7561 29.6583C22.7683 29.6434 20.7938 29.6583 18.8109 29.6583C17.8733 29.6583 16.9358 29.6467 15.9949 29.6583C15.7232 29.6583 15.6553 29.5722 15.6636 29.327C15.6868 28.9713 15.6868 28.6143 15.6636 28.2586C15.6371 27.9422 15.7696 27.8908 16.0495 27.8958C17.0799 27.9107 18.1102 27.8958 19.1406 27.9091C19.4404 27.9091 19.5414 27.8295 19.5116 27.533C19.4686 27.0907 19.6972 26.4961 19.4189 26.2459C19.1754 26.0256 18.5906 26.1747 18.1583 26.173C16.3079 26.173 14.4593 26.173 12.609 26.173C11.3716 26.1697 10.4274 25.2984 10.4174 24.0544C10.3942 21.0064 10.3942 17.9584 10.4174 14.9105C10.429 13.6996 11.3815 12.8001 12.5941 12.8001C17.7988 12.8001 23.0035 12.8001 28.2083 12.8001C28.6406 12.7977 29.0636 12.9256 29.4223 13.1669C29.7809 13.4083 30.0586 13.7521 30.2193 14.1534C30.3733 14.5444 30.3551 14.5725 29.9377 14.5725H21.3338V14.5759Z" fill="#2C2C2C"/>
<path d="M24.7544 19.4915C24.7544 20.454 24.7445 21.4164 24.7544 22.3805C24.7544 22.6455 24.6749 22.7118 24.4231 22.7118C24.0405 22.6919 23.6562 22.7002 23.2735 22.7118C23.083 22.7118 22.9886 22.6803 22.9903 22.455C22.9969 20.4904 22.9969 18.5247 22.9903 16.5579C22.9903 16.3492 23.0615 16.2845 23.2652 16.2912C23.6611 16.3044 24.0587 16.3111 24.4546 16.2912C24.7147 16.2763 24.7577 16.3823 24.7544 16.6109C24.7478 17.565 24.7544 18.5275 24.7544 19.4915Z" fill="#2C2C2C"/>
<path d="M21.28 20.6655C21.28 21.2452 21.28 21.825 21.28 22.4048C21.28 22.6152 21.2386 22.7146 21.0001 22.7046C20.5793 22.6864 20.1569 22.693 19.7345 22.7046C19.5689 22.7046 19.5043 22.6516 19.5043 22.4793C19.5043 21.28 19.5043 20.0818 19.5043 18.8847C19.5043 18.7091 19.5788 18.6594 19.7428 18.6628C20.1652 18.6628 20.586 18.6743 21.0084 18.6628C21.2154 18.6628 21.2834 18.7274 21.28 18.9328C21.2718 19.5076 21.2784 20.089 21.28 20.6655Z" fill="#2C2C2C"/>
<path d="M16.0319 21.6192C16.0617 21.3641 15.8944 20.9566 16.0965 20.7644C16.2986 20.5723 16.6995 20.7131 17.0125 20.7097C17.7878 20.7097 17.7878 20.7097 17.7878 21.49C17.7878 21.7931 17.7712 22.0979 17.7878 22.3994C17.806 22.6545 17.705 22.7141 17.4714 22.7042C17.089 22.6843 16.7058 22.6843 16.3234 22.7042C16.065 22.7207 16.0054 22.6197 16.022 22.3878C16.0385 22.1559 16.0319 21.9107 16.0319 21.6192Z" fill="#2C2C2C"/>
</svg>
